<svg width="271.000000" height="60.000000" viewBox="0 0 271 60" fill="none" xmlns="http://www.w3.org/2000/svg" xmlns:xlink="http://www.w3.org/1999/xlink">
	<desc>
			Created with Pixso.
	</desc>
	<defs>
		<filter id="filter_3_7601_dd" x="0.000000" y="0.000000" width="271.000000" height="60.000000" filterUnits="userSpaceOnUse" color-interpolation-filters="sRGB">
			<feFlood flood-opacity="0" result="BackgroundImageFix"/>
			<feBlend mode="normal" in="SourceGraphic" in2="BackgroundImageFix" result="shape"/>
			<feColorMatrix in="SourceAlpha" type="matrix" values="0 0 0 0 0 0 0 0 0 0 0 0 0 0 0 0 0 0 127 0" result="hardAlpha"/>
			<feOffset dx="-4" dy="4"/>
			<feGaussianBlur stdDeviation="6.66667"/>
			<feComposite in2="hardAlpha" operator="arithmetic" k2="-1" k3="1"/>
			<feColorMatrix type="matrix" values="0 0 0 0 0.70196 0 0 0 0 0.39608 0 0 0 0 0 0 0 0 1 0"/>
			<feBlend mode="normal" in2="shape" result="effect_innerShadow_1"/>
		</filter>
	</defs>
	<g filter="url(#filter_3_7601_dd)">
		<path id="Union" d="M170 0L30 0C13.4314 0 0 13.4316 0 30C0 46.5684 13.4314 60 30 60L170 60C182.929 60 193.948 51.8213 198.165 40.356C203.177 38.1709 207.843 38.3081 213.047 40.9146C217.413 52.0864 228.282 60 241 60C257.569 60 271 46.5684 271 30C271 13.4316 257.569 0 241 0C227.666 0 216.363 8.69971 212.459 20.7324C207.753 23.1738 203.378 23.2349 198.619 20.9756C194.788 8.81689 183.424 0 170 0Z" clip-rule="evenodd" fill="#E77334" fill-opacity="1.000000" fill-rule="evenodd"/>
	</g>
</svg>
