<svg width="360.000000" height="50.000000" viewBox="0 0 360 50" fill="none" xmlns="http://www.w3.org/2000/svg" xmlns:xlink="http://www.w3.org/1999/xlink">
	<desc>
			Created with Pixso.
	</desc>
	<defs>
		<filter id="filter_2_22697_dd" x="0.000000" y="0.000000" width="360.000000" height="50.000000" filterUnits="userSpaceOnUse" color-interpolation-filters="sRGB">
			<feFlood flood-opacity="0" result="BackgroundImageFix"/>
			<feBlend mode="normal" in="SourceGraphic" in2="BackgroundImageFix" result="shape"/>
			<feColorMatrix in="SourceAlpha" type="matrix" values="0 0 0 0 0 0 0 0 0 0 0 0 0 0 0 0 0 0 127 0" result="hardAlpha"/>
			<feOffset dx="-4" dy="4"/>
			<feGaussianBlur stdDeviation="6.66667"/>
			<feComposite in2="hardAlpha" operator="arithmetic" k2="-1" k3="1"/>
			<feColorMatrix type="matrix" values="0 0 0 0 0 0 0 0 0 0 0 0 0 0 0 0 0 0 0.1 0"/>
			<feBlend mode="normal" in2="shape" result="effect_innerShadow_1"/>
		</filter>
	</defs>
	<g filter="url(#filter_2_22697_dd)">
		<path id="Union" d="M335 0C348.807 0 360 11.1929 360 25C360 38.8071 348.807 50 335 50C323.961 50 314.593 42.8452 311.281 32.9194C306.9 30.4263 303.096 30.2715 298.918 32.2964C295.796 42.5439 286.269 50 275 50L25 50C11.1929 50 0 38.8071 0 25C0 11.1929 11.1929 0 25 0L275 0C286.163 0 295.617 7.31592 298.829 17.4146C303.171 19.8569 307.009 19.7319 311.322 16.9585C314.67 7.09619 324.006 0 335 0Z" clip-rule="evenodd" fill="#F0EEEE" fill-opacity="1.000000" fill-rule="evenodd"/>
	</g>
</svg>
