<svg width="35.000000" height="35.000000" viewBox="0 0 35 35" fill="none" xmlns="http://www.w3.org/2000/svg" xmlns:xlink="http://www.w3.org/1999/xlink">
	<path id="Vector" d="M23.33 26.25C24.1 26.25 24.84 26.55 25.39 27.1C25.94 27.65 26.25 28.39 26.25 29.16C26.25 29.94 25.94 30.68 25.39 31.22C24.84 31.77 24.1 32.08 23.33 32.08C22.55 32.08 21.81 31.77 21.27 31.22C20.72 30.68 20.41 29.94 20.41 29.16C20.41 28.39 20.72 27.65 21.27 27.1C21.81 26.55 22.55 26.25 23.33 26.25ZM23.33 27.7C22.94 27.7 22.57 27.86 22.3 28.13C22.02 28.4 21.87 28.77 21.87 29.16C21.87 29.55 22.02 29.92 22.3 30.19C22.57 30.47 22.94 30.62 23.33 30.62C23.72 30.62 24.09 30.47 24.36 30.19C24.63 29.92 24.79 29.55 24.79 29.16C24.79 28.77 24.63 28.4 24.36 28.13C24.09 27.86 23.72 27.7 23.33 27.7ZM10.2 26.25C10.98 26.25 11.72 26.55 12.27 27.1C12.81 27.65 13.12 28.39 13.12 29.16C13.12 29.94 12.81 30.68 12.27 31.22C11.72 31.77 10.98 32.08 10.2 32.08C9.43 32.08 8.69 31.77 8.14 31.22C7.59 30.68 7.29 29.94 7.29 29.16C7.29 28.39 7.59 27.65 8.14 27.1C8.69 26.55 9.43 26.25 10.2 26.25ZM10.2 27.7C9.82 27.7 9.45 27.86 9.17 28.13C8.9 28.4 8.75 28.77 8.75 29.16C8.75 29.55 8.9 29.92 9.17 30.19C9.45 30.47 9.82 30.62 10.2 30.62C10.59 30.62 10.96 30.47 11.23 30.19C11.51 29.92 11.66 29.55 11.66 29.16C11.66 28.77 11.51 28.4 11.23 28.13C10.96 27.86 10.59 27.7 10.2 27.7ZM26.25 8.75L6.22 8.75L9.94 17.5L21.87 17.5C22.35 17.5 22.77 17.26 23.04 16.91L27.41 11.08C27.6 10.83 27.7 10.52 27.7 10.2C27.7 9.82 27.55 9.45 27.28 9.17C27 8.9 26.63 8.75 26.25 8.75ZM21.87 18.95L10.01 18.95L8.89 21.23L8.75 21.87C8.75 22.26 8.9 22.63 9.17 22.9C9.45 23.17 9.82 23.33 10.2 23.33L26.25 23.33L26.25 24.79L10.2 24.79C9.43 24.79 8.69 24.48 8.14 23.93C7.59 23.39 7.29 22.64 7.29 21.87C7.29 21.38 7.41 20.89 7.65 20.46L8.7 18.31L3.41 5.83L1.45 5.83L1.45 4.37L4.37 4.37L5.61 7.29L26.25 7.29C27.02 7.29 27.76 7.59 28.31 8.14C28.85 8.69 29.16 9.43 29.16 10.2C29.16 10.93 28.91 11.55 28.51 12.04L24.26 17.71C23.74 18.46 22.86 18.95 21.87 18.95Z" fill="#7C7C7C" fill-opacity="1.000000" fill-rule="nonzero"/>
</svg>
