<svg width="36.666992" height="40.333496" viewBox="0 0 36.667 40.3335" fill="none" xmlns="http://www.w3.org/2000/svg" xmlns:xlink="http://www.w3.org/1999/xlink">
	<desc>
			Created with Pixso.
	</desc>
	<defs/>
	<path id="Vector" d="M14.19 36.19C6.06 34.32 0 27.03 0 18.33C0 8.2 8.2 0 18.33 0C28.45 0 36.66 8.2 36.66 18.33C36.66 27.03 30.6 34.32 22.46 36.19L18.33 40.33L14.19 36.19ZM9.18 29.8C10.89 31.17 12.89 32.13 15.02 32.62L16.04 32.86L18.33 35.14L20.61 32.86L21.64 32.62C23.91 32.1 26.02 31.04 27.8 29.53C26.61 28.3 25.18 27.33 23.6 26.66C22.03 26 20.33 25.66 18.62 25.66C14.89 25.66 11.53 27.26 9.18 29.8ZM6.62 27.16C8.17 25.53 10.03 24.23 12.09 23.34C14.15 22.45 16.37 21.99 18.62 22C20.79 21.99 22.93 22.42 24.94 23.25C26.94 24.07 28.75 25.29 30.29 26.82C31.85 24.62 32.78 22.01 32.96 19.31C33.14 16.61 32.57 13.91 31.31 11.51C30.05 9.11 28.15 7.11 25.82 5.72C23.49 4.34 20.83 3.62 18.12 3.66C15.41 3.7 12.76 4.49 10.47 5.94C8.19 7.39 6.34 9.45 5.15 11.89C3.96 14.32 3.47 17.04 3.73 19.73C3.99 22.43 4.99 25 6.62 27.16ZM18.33 20.16C16.38 20.16 14.52 19.39 13.14 18.01C11.77 16.64 11 14.77 11 12.83C11 10.88 11.77 9.02 13.14 7.64C14.52 6.27 16.38 5.5 18.33 5.5C20.27 5.5 22.14 6.27 23.51 7.64C24.89 9.02 25.66 10.88 25.66 12.83C25.66 14.77 24.89 16.64 23.51 18.01C22.14 19.39 20.27 20.16 18.33 20.16ZM18.33 16.5C19.3 16.5 20.23 16.11 20.92 15.42C21.61 14.73 22 13.8 22 12.83C22 11.86 21.61 10.92 20.92 10.24C20.23 9.55 19.3 9.16 18.33 9.16C17.36 9.16 16.42 9.55 15.74 10.24C15.05 10.92 14.66 11.86 14.66 12.83C14.66 13.8 15.05 14.73 15.74 15.42C16.42 16.11 17.36 16.5 18.33 16.5Z" fill="#00582A" fill-opacity="1.000000" fill-rule="nonzero"/>
</svg>
