<svg width="21.003906" height="21.003662" viewBox="0 0 21.0039 21.0037" fill="none" xmlns="http://www.w3.org/2000/svg" xmlns:xlink="http://www.w3.org/1999/xlink">
	<desc>
			Created with Pixso.
	</desc>
	<defs/>
	<path id="Vector" d="M17.64 0.5C18.4 0.5 19.12 0.8 19.66 1.33C20.2 1.87 20.5 2.59 20.5 3.35L20.5 17.64C20.5 18.4 20.2 19.12 19.66 19.66C19.12 20.19 18.4 20.5 17.64 20.5L3.35 20.5C2.6 20.5 1.87 20.19 1.33 19.66C0.8 19.12 0.5 18.4 0.5 17.64L0.5 3.35C0.5 2.59 0.8 1.87 1.33 1.33C1.87 0.8 2.6 0.5 3.35 0.5L17.64 0.5Z" stroke="#000000" stroke-opacity="1.000000" stroke-width="1.000000" stroke-linejoin="round"/>
	<path id="Vector" d="M20.5 14.78L16.21 10.5L11.93 14.76M17.64 20.5L4.78 7.64L0.5 11.93" stroke="#000000" stroke-opacity="1.000000" stroke-width="1.000000" stroke-linejoin="round" stroke-linecap="round"/>
	<path id="Vector" d="M16.93 5.49C16.93 6.28 16.29 6.92 15.5 6.92C14.71 6.92 14.07 6.28 14.07 5.49C14.07 4.7 14.71 4.07 15.5 4.07C16.29 4.07 16.93 4.7 16.93 5.49Z" fill="#000000" fill-opacity="1.000000" fill-rule="evenodd"/>
</svg>
