<svg width="20.000000" height="20.000000" viewBox="0 0 20 20" fill="none" xmlns="http://www.w3.org/2000/svg" xmlns:xlink="http://www.w3.org/1999/xlink">
	<desc>
			Created with Pixso.
	</desc>
	<defs>
		<clipPath id="clip554_15123">
			<rect id="solar:eye-linear" rx="0.000000" width="19.000000" height="19.000000" transform="translate(0.500000 0.500000)" fill="white" fill-opacity="0"/>
		</clipPath>
	</defs>
	<rect id="solar:eye-linear" rx="0.000000" width="19.000000" height="19.000000" transform="translate(0.500000 0.500000)" fill="#FFFFFF" fill-opacity="0"/>
	<g clip-path="url(#clip554_15123)">
		<path id="Vector" d="M1.66 10C1.66 8.63 2.01 8.17 2.72 7.25C4.14 5.41 6.51 3.33 10 3.33C13.48 3.33 15.85 5.41 17.26 7.25C17.97 8.17 18.33 8.63 18.33 10C18.33 11.36 17.97 11.82 17.26 12.74C15.85 14.58 13.48 16.66 10 16.66C6.51 16.66 4.14 14.58 2.72 12.74C2.01 11.82 1.66 11.36 1.66 10Z" stroke="#FFFFFF" stroke-opacity="1.000000" stroke-width="1.500000"/>
		<path id="Vector" d="M11.76 11.76C11.29 12.23 10.66 12.5 10 12.5C9.33 12.5 8.7 12.23 8.23 11.76C7.76 11.29 7.5 10.66 7.5 10C7.5 9.33 7.76 8.7 8.23 8.23C8.7 7.76 9.33 7.5 10 7.5C10.66 7.5 11.29 7.76 11.76 8.23C12.23 8.7 12.5 9.33 12.5 10C12.5 10.66 12.23 11.29 11.76 11.76Z" stroke="#FFFFFF" stroke-opacity="1.000000" stroke-width="1.500000"/>
	</g>
</svg>
