<svg width="20.000000" height="19.074951" viewBox="0 0 20 19.075" fill="none" xmlns="http://www.w3.org/2000/svg" xmlns:xlink="http://www.w3.org/1999/xlink">
	<desc>
			Created with Pixso.
	</desc>
	<defs/>
	<path id="Vector" d="M19.25 9.53L6.89 9.53M2.53 9.53L0.75 9.53M19.25 16.14L13.5 16.14M9.14 16.14L0.75 16.14M19.25 2.92L16.14 2.92M11.78 2.92L0.75 2.92M14.79 4.94C15.06 4.83 15.3 4.67 15.5 4.47C15.7 4.26 15.86 4.02 15.97 3.76C16.08 3.49 16.14 3.21 16.14 2.92C16.14 2.64 16.08 2.36 15.97 2.09C15.86 1.83 15.7 1.59 15.5 1.38C15.3 1.18 15.06 1.02 14.79 0.91C14.53 0.8 14.25 0.75 13.96 0.75C13.38 0.75 12.83 0.97 12.42 1.38C12.01 1.79 11.78 2.35 11.78 2.92C11.78 3.5 12.01 4.06 12.42 4.47C12.83 4.88 13.38 5.11 13.96 5.11C14.25 5.11 14.53 5.05 14.79 4.94ZM6.25 11.07C6.66 10.66 6.89 10.11 6.89 9.53C6.89 8.95 6.66 8.4 6.25 7.99C5.84 7.58 5.29 7.35 4.71 7.35C4.13 7.35 3.58 7.58 3.17 7.99C2.76 8.4 2.53 8.95 2.53 9.53C2.53 10.11 2.76 10.66 3.17 11.07C3.58 11.48 4.13 11.71 4.71 11.71C5.29 11.71 5.84 11.48 6.25 11.07ZM12.86 17.68C13.27 17.27 13.5 16.72 13.5 16.14C13.5 15.56 13.27 15.01 12.86 14.6C12.45 14.19 11.89 13.96 11.32 13.96C10.74 13.96 10.18 14.19 9.78 14.6C9.37 15.01 9.14 15.56 9.14 16.14C9.14 16.72 9.37 17.27 9.78 17.68C10.18 18.09 10.74 18.32 11.32 18.32C11.89 18.32 12.45 18.09 12.86 17.68Z" stroke="#00582A" stroke-opacity="1.000000" stroke-width="1.500000" stroke-linecap="round"/>
</svg>
