<svg width="20.773438" height="21.875000" viewBox="0 0 20.7734 21.875" fill="none" xmlns="http://www.w3.org/2000/svg" xmlns:xlink="http://www.w3.org/1999/xlink">
	<desc>
			Created with Pixso.
	</desc>
	<defs/>
	<path id="Vector" d="M7.26 0.78C7.26 0.57 7.34 0.37 7.49 0.22C7.63 0.08 7.83 0 8.04 0C8.25 0 8.44 0.08 8.59 0.22C8.74 0.37 8.82 0.57 8.82 0.78L8.82 19.98C8.82 20.14 8.77 20.29 8.69 20.42C8.6 20.55 8.48 20.65 8.34 20.71C8.19 20.76 8.04 20.78 7.89 20.75C7.74 20.72 7.6 20.65 7.49 20.54L0.23 13.28C0.15 13.2 0.09 13.12 0.05 13.02C0.01 12.93 0 12.83 0 12.72C0 12.62 0.01 12.52 0.05 12.42C0.09 12.33 0.15 12.24 0.23 12.17L0.23 12.17C0.37 12.02 0.57 11.94 0.78 11.94C0.99 11.94 1.18 12.02 1.33 12.17L7.26 18.1L7.26 0.78ZM11.94 1.88C11.94 1.73 11.99 1.58 12.08 1.45C12.16 1.32 12.28 1.22 12.43 1.16C12.57 1.1 12.73 1.09 12.88 1.12C13.03 1.15 13.17 1.22 13.28 1.33L20.54 8.59C20.61 8.66 20.67 8.75 20.71 8.84C20.75 8.94 20.77 9.04 20.77 9.14C20.77 9.24 20.75 9.35 20.71 9.44C20.67 9.54 20.61 9.62 20.54 9.69L20.54 9.69C20.39 9.84 20.19 9.92 19.99 9.92C19.78 9.92 19.58 9.84 19.43 9.69L13.51 3.77L13.51 21.09C13.51 21.3 13.42 21.49 13.28 21.64C13.13 21.79 12.93 21.87 12.73 21.87C12.52 21.87 12.32 21.79 12.17 21.64C12.03 21.49 11.94 21.3 11.94 21.09L11.94 1.88Z" fill="#00582A" fill-opacity="1.000000" fill-rule="nonzero"/>
</svg>
