<svg width="20.416016" height="22.436523" viewBox="0 0 20.416 22.4365" fill="none" xmlns="http://www.w3.org/2000/svg" xmlns:xlink="http://www.w3.org/1999/xlink">
	<desc>
			Created with Pixso.
	</desc>
	<defs/>
	<path id="Vector" d="M1.45 20.97L6.84 20.97L6.84 13.57C6.84 13.24 6.95 12.96 7.18 12.73C7.4 12.5 7.68 12.39 8.02 12.39L12.39 12.39C12.72 12.39 13 12.5 13.23 12.73C13.46 12.96 13.57 13.24 13.57 13.57L13.57 20.97L18.95 20.97L18.95 8.3C18.95 8.15 18.92 8.01 18.86 7.89C18.79 7.77 18.7 7.66 18.59 7.57L10.74 1.65C10.59 1.52 10.41 1.45 10.2 1.45C10 1.45 9.82 1.52 9.67 1.65L1.82 7.57C1.71 7.66 1.62 7.77 1.55 7.89C1.49 8.01 1.45 8.15 1.45 8.3L1.45 20.97ZM0 20.97L0 8.3C0 7.92 0.08 7.57 0.25 7.24C0.41 6.9 0.64 6.63 0.94 6.41L8.79 0.47C9.2 0.15 9.67 0 10.2 0C10.73 0 11.2 0.15 11.62 0.47L19.47 6.41C19.76 6.63 20 6.9 20.16 7.24C20.33 7.57 20.41 7.92 20.41 8.3L20.41 20.97C20.41 21.36 20.27 21.7 19.98 22C19.68 22.29 19.34 22.43 18.95 22.43L13.29 22.43C12.95 22.43 12.67 22.32 12.45 22.09C12.22 21.87 12.11 21.59 12.11 21.25L12.11 13.85L8.3 13.85L8.3 21.25C8.3 21.59 8.18 21.87 7.96 22.09C7.73 22.32 7.45 22.43 7.12 22.43L1.45 22.43C1.06 22.43 0.72 22.29 0.43 22C0.14 21.7 0 21.36 0 20.97Z" fill="#00582A" fill-opacity="1.000000" fill-rule="nonzero"/>
</svg>
