<svg width="31.500000" height="34.833496" viewBox="0 0 31.5 34.8335" fill="none" xmlns="http://www.w3.org/2000/svg" xmlns:xlink="http://www.w3.org/1999/xlink">
	<desc>
			Created with Pixso.
	</desc>
	<defs/>
	<path id="Vector" d="M15.75 9.08L15.75 19.08" stroke="#1C9466" stroke-opacity="1.000000" stroke-width="1.500000" stroke-linecap="round"/>
	<path id="Vector" d="M17.41 24.08C17.41 25 16.66 25.75 15.75 25.75C14.82 25.75 14.08 25 14.08 24.08C14.08 23.16 14.82 22.41 15.75 22.41C16.66 22.41 17.41 23.16 17.41 24.08Z" fill="#1C9466" fill-opacity="1.000000" fill-rule="evenodd"/>
	<path id="Vector" d="M15.75 0.75C17.6 0.75 19.29 1.75 22.67 3.75L23.82 4.43C27.2 6.43 28.89 7.43 29.82 9.08C30.75 10.73 30.75 12.73 30.75 16.74L30.75 18.09C30.75 22.09 30.75 24.1 29.82 25.75C28.89 27.39 27.2 28.39 23.82 30.4L22.67 31.08C19.29 33.08 17.6 34.08 15.75 34.08C13.89 34.08 12.2 33.08 8.82 31.08L7.67 30.4C4.29 28.4 2.6 27.39 1.67 25.75C0.75 24.1 0.75 22.1 0.75 18.09L0.75 16.74C0.75 12.73 0.75 10.73 1.67 9.08C2.6 7.43 4.29 6.43 7.67 4.43L8.82 3.75C12.2 1.75 13.89 0.75 15.75 0.75Z" stroke="#1C9466" stroke-opacity="1.000000" stroke-width="1.500000"/>
</svg>
