<svg width="28.437500" height="31.374268" viewBox="0 0 28.4375 31.3743" fill="none" xmlns="http://www.w3.org/2000/svg" xmlns:xlink="http://www.w3.org/1999/xlink">
	<desc>
			Created with Pixso.
	</desc>
	<defs/>
	<path id="Vector" d="M14.85 2.22C14.64 2.16 14.41 2.17 14.21 2.27C14.12 2.31 14.03 2.38 13.96 2.46C13.89 2.55 13.83 2.64 13.81 2.75L13.11 5.42C12.87 6.36 12.52 7.26 12.06 8.11C11.35 9.43 10.29 10.45 9.29 11.31L7.2 13.11C7.04 13.25 6.91 13.43 6.83 13.62C6.75 13.82 6.72 14.03 6.74 14.24L7.92 27.94C7.95 28.27 8.1 28.58 8.35 28.81C8.59 29.04 8.92 29.16 9.25 29.16L16.03 29.16C20.6 29.16 24.46 25.98 25.2 21.71L26.22 15.76C26.26 15.56 26.25 15.37 26.2 15.18C26.15 14.99 26.06 14.82 25.93 14.67C25.81 14.52 25.65 14.4 25.47 14.32C25.3 14.23 25.11 14.19 24.91 14.19L17.36 14.19C15.93 14.19 14.85 12.91 15.08 11.51L16.04 5.61C16.18 4.8 16.14 3.97 15.93 3.18C15.87 2.97 15.76 2.78 15.61 2.63C15.46 2.47 15.27 2.36 15.06 2.29L14.85 2.22ZM13.26 0.3C13.97 -0.04 14.78 -0.1 15.52 0.14L15.73 0.21C16.87 0.57 17.75 1.48 18.05 2.63C18.33 3.72 18.38 4.86 18.2 5.96L17.24 11.86C17.23 11.88 17.23 11.9 17.24 11.91C17.24 11.93 17.25 11.95 17.26 11.96C17.27 11.97 17.29 11.98 17.3 11.99C17.32 12 17.34 12 17.36 12L24.91 12C27.1 12 28.75 13.97 28.38 16.13L27.35 22.08C26.42 27.46 21.61 31.35 16.03 31.35L9.25 31.35C8.37 31.35 7.52 31.02 6.87 30.42C6.22 29.83 5.82 29.01 5.74 28.13L4.56 14.43C4.51 13.87 4.59 13.31 4.8 12.8C5.01 12.28 5.34 11.82 5.77 11.46L7.87 9.65C8.82 8.83 9.63 8.03 10.13 7.08C10.51 6.38 10.8 5.64 10.99 4.87L11.69 2.2C11.8 1.79 11.99 1.4 12.27 1.07C12.54 0.75 12.88 0.48 13.26 0.3ZM1.04 12C1.32 11.99 1.6 12.09 1.81 12.28C2.02 12.46 2.16 12.72 2.18 13L3.59 29.39C3.62 29.63 3.59 29.88 3.52 30.11C3.44 30.35 3.32 30.56 3.16 30.75C3 30.93 2.8 31.08 2.58 31.19C2.36 31.3 2.12 31.36 1.88 31.37C1.63 31.38 1.39 31.34 1.16 31.25C0.93 31.16 0.72 31.03 0.54 30.86C0.37 30.69 0.23 30.49 0.13 30.26C0.04 30.03 -0.01 29.79 0 29.55L0 13.1C0 12.81 0.1 12.54 0.3 12.34C0.49 12.14 0.76 12.02 1.04 12Z" fill="#00582A" fill-opacity="1.000000" fill-rule="evenodd"/>
</svg>
