<svg width="29.750000" height="35.000000" viewBox="0 0 29.75 35" fill="none" xmlns="http://www.w3.org/2000/svg" xmlns:xlink="http://www.w3.org/1999/xlink">
	<desc>
			Created with Pixso.
	</desc>
	<defs/>
	<path id="Vector" d="M2.34 6.76L2.34 19.77C2.34 26.85 7.95 32.59 14.87 32.59C21.79 32.59 27.4 26.85 27.4 19.77L27.4 6.77L14.79 2.53L2.34 6.76ZM14.79 0L29.75 5.02L29.75 19.77C29.75 28.18 23.08 35 14.87 35C6.66 35 0 28.18 0 19.77L0 5.02L14.79 0ZM22.52 11.34C22.41 11.24 22.28 11.16 22.13 11.11C21.98 11.05 21.83 11.03 21.67 11.04C21.52 11.05 21.37 11.09 21.23 11.16C21.09 11.23 20.97 11.33 20.87 11.44L13.31 20.14L8.43 14.74C8.33 14.62 8.2 14.53 8.07 14.47C7.92 14.4 7.77 14.36 7.62 14.36C7.46 14.35 7.31 14.37 7.16 14.43C7.02 14.48 6.89 14.57 6.77 14.67C6.55 14.89 6.41 15.19 6.4 15.51C6.39 15.83 6.5 16.14 6.71 16.37L12.47 22.74C12.58 22.87 12.71 22.97 12.86 23.03C13.01 23.1 13.18 23.13 13.34 23.13C13.51 23.13 13.67 23.09 13.82 23.02C13.97 22.95 14.1 22.85 14.21 22.73L22.62 13.04C22.83 12.8 22.93 12.49 22.91 12.17C22.9 11.86 22.76 11.56 22.52 11.34Z" fill="#00582A" fill-opacity="1.000000" fill-rule="nonzero"/>
</svg>
