<svg width="31.354492" height="28.436523" viewBox="0 0 31.3545 28.4365" fill="none" xmlns="http://www.w3.org/2000/svg" xmlns:xlink="http://www.w3.org/1999/xlink">
	<desc>
			Created with Pixso.
	</desc>
	<defs/>
	<path id="Vector" d="M1.09 1.09L1.09 0C0.8 0 0.52 0.11 0.32 0.32C0.11 0.52 0 0.8 0 1.09L1.09 1.09ZM17.13 1.09L18.22 1.09C18.22 0.8 18.11 0.52 17.9 0.32C17.7 0.11 17.42 0 17.13 0L17.13 1.09ZM17.13 9.84L17.13 8.75C16.84 8.75 16.56 8.86 16.36 9.07C16.15 9.27 16.04 9.55 16.04 9.84L17.13 9.84ZM1.09 2.18L17.13 2.18L17.13 0L1.09 0L1.09 2.18ZM16.04 1.09L16.04 24.42L18.22 24.42L18.22 1.09L16.04 1.09ZM2.18 21.51L2.18 1.09L0 1.09L0 21.51L2.18 21.51ZM17.13 10.93L24.42 10.93L24.42 8.75L17.13 8.75L17.13 10.93ZM29.16 15.67L29.16 21.51L31.35 21.51L31.35 15.67L29.16 15.67ZM18.22 24.42L18.22 9.84L16.04 9.84L16.04 24.42L18.22 24.42ZM25.71 25.71C25.54 25.88 25.34 26.01 25.12 26.11C24.9 26.2 24.66 26.25 24.42 26.25C24.18 26.25 23.95 26.2 23.72 26.11C23.5 26.01 23.3 25.88 23.13 25.71L21.59 27.26C22.34 28.01 23.36 28.43 24.42 28.43C25.49 28.43 26.51 28.01 27.26 27.26L25.71 25.71ZM23.13 23.13C23.3 22.96 23.5 22.83 23.72 22.74C23.95 22.65 24.18 22.6 24.42 22.6C24.66 22.6 24.9 22.65 25.12 22.74C25.34 22.83 25.54 22.96 25.71 23.13L27.26 21.59C26.5 20.84 25.49 20.41 24.42 20.41C23.36 20.41 22.34 20.84 21.59 21.59L23.13 23.13ZM8.21 25.71C8.04 25.88 7.84 26.01 7.62 26.11C7.4 26.2 7.16 26.25 6.92 26.25C6.68 26.25 6.45 26.2 6.22 26.11C6 26.01 5.8 25.88 5.63 25.71L4.09 27.26C4.84 28.01 5.86 28.43 6.92 28.43C7.99 28.43 9.01 28.01 9.76 27.26L8.21 25.71ZM5.63 23.13C5.8 22.96 6 22.83 6.22 22.74C6.45 22.65 6.68 22.6 6.92 22.6C7.16 22.6 7.4 22.65 7.62 22.74C7.84 22.83 8.04 22.96 8.21 23.13L9.76 21.59C9 20.84 7.99 20.41 6.92 20.41C5.86 20.41 4.84 20.84 4.09 21.59L5.63 23.13ZM25.71 23.13C26.07 23.49 26.25 23.95 26.25 24.42L28.43 24.42C28.43 23.4 28.04 22.37 27.26 21.59L25.71 23.13ZM26.25 24.42C26.25 24.89 26.07 25.36 25.71 25.71L27.26 27.26C27.63 26.89 27.93 26.44 28.13 25.96C28.33 25.47 28.43 24.95 28.43 24.42L26.25 24.42ZM21.51 23.33L17.13 23.33L17.13 25.52L21.51 25.52L21.51 23.33ZM23.13 25.71C22.96 25.54 22.83 25.34 22.74 25.12C22.65 24.9 22.6 24.66 22.6 24.42L20.41 24.42C20.41 25.45 20.8 26.48 21.59 27.26L23.13 25.71ZM22.6 24.42C22.6 23.95 22.78 23.49 23.13 23.13L21.59 21.59C21.21 21.96 20.92 22.4 20.72 22.89C20.51 23.37 20.41 23.9 20.41 24.42L22.6 24.42ZM5.63 25.71C5.46 25.54 5.33 25.34 5.24 25.12C5.15 24.9 5.1 24.66 5.1 24.42L2.91 24.42C2.91 25.45 3.3 26.48 4.09 27.26L5.63 25.71ZM5.1 24.42C5.1 23.95 5.28 23.49 5.63 23.13L4.09 21.59C3.71 21.96 3.42 22.4 3.22 22.89C3.01 23.37 2.91 23.9 2.91 24.42L5.1 24.42ZM17.13 23.33L9.84 23.33L9.84 25.52L17.13 25.52L17.13 23.33ZM8.21 23.13C8.57 23.49 8.75 23.95 8.75 24.42L10.93 24.42C10.93 23.4 10.54 22.37 9.76 21.59L8.21 23.13ZM8.75 24.42C8.75 24.89 8.57 25.36 8.21 25.71L9.76 27.26C10.13 26.89 10.43 26.44 10.63 25.96C10.83 25.47 10.93 24.95 10.93 24.42L8.75 24.42ZM29.16 21.51C29.16 22.51 28.34 23.33 27.34 23.33L27.34 25.52C28.4 25.52 29.42 25.09 30.17 24.34C30.93 23.59 31.35 22.57 31.35 21.51L29.16 21.51ZM24.42 10.93C25.68 10.93 26.88 11.43 27.77 12.32C28.66 13.21 29.16 14.42 29.16 15.67L31.35 15.67C31.35 13.83 30.62 12.07 29.32 10.77C28.02 9.47 26.26 8.75 24.42 8.75L24.42 10.93ZM0 21.51C0 22.57 0.42 23.59 1.17 24.34C1.92 25.09 2.94 25.52 4.01 25.52L4.01 23.33C3 23.33 2.18 22.51 2.18 21.51L0 21.51Z" fill="#00582A" fill-opacity="1.000000" fill-rule="nonzero"/>
</svg>
