<svg width="229" height="82" viewBox="0 0 229 82" fill="none" xmlns="http://www.w3.org/2000/svg">
<g filter="url(#filter0_di_601_1150)">
<rect x="136.255" y="35.437" width="80" height="40" rx="20" transform="rotate(-25 136.255 35.437)" fill="#F8F8F8"/>
</g>
<g filter="url(#filter1_di_601_1150)">
<path d="M144.708 53.5632C140.04 43.5524 144.371 31.6528 154.382 26.9846L172.508 18.5323L189.412 54.7846L171.286 63.237C161.275 67.9051 149.376 63.574 144.708 53.5632Z" fill="#DFE3D8"/>
</g>
<g filter="url(#filter2_i_601_1150)">
<path d="M171.362 35.3334L161.021 58.6591L158.482 52.8588L168.823 29.5331L171.362 35.3334ZM156.107 36.6211L163.321 52.0918L161.021 58.6591L151.702 38.6751L156.107 36.6211ZM168.823 29.5331L178.142 49.5172L173.71 51.5838L166.572 36.2762L168.823 29.5331Z" fill="white"/>
</g>
<g filter="url(#filter3_i_601_1150)">
<path d="M199.211 29.3078L197.874 40.4245L192.491 42.9349L194.426 31.5393L199.211 29.3078ZM199.086 16.6883L207.961 35.7208L203.366 37.8634L194.491 18.831L199.086 16.6883ZM198.017 21.9203L194.292 23.6573C193.694 23.9362 193.215 24.281 192.855 24.6917C192.495 25.1024 192.286 25.553 192.227 26.0435C192.161 26.5159 192.25 27.015 192.495 27.5406C192.74 28.0663 193.069 28.4645 193.483 28.7353C193.887 28.9879 194.363 29.1083 194.909 29.0963C195.446 29.0663 196.014 28.9118 196.613 28.6329L200.337 26.8959L201.998 30.4577L197.947 32.3468C196.334 33.0991 194.852 33.4702 193.501 33.4601C192.168 33.4416 191.006 33.1011 190.013 32.4387C189.011 31.7582 188.227 30.8107 187.661 29.5962C187.086 28.3637 186.864 27.1541 186.995 25.9677C187.117 24.7631 187.6 23.6444 188.442 22.6116C189.303 21.5703 190.54 20.6736 192.153 19.9213L196.204 18.0322L198.017 21.9203Z" fill="white"/>
</g>
<g filter="url(#filter4_i_601_1150)">
<path d="M6 32.5602V30.3402H9.39C9.97 30.3402 10.46 30.2502 10.86 30.0702C11.28 29.8902 11.6 29.6402 11.82 29.3202C12.04 28.9802 12.15 28.5702 12.15 28.0902C12.15 27.3702 11.91 26.8302 11.43 26.4702C10.95 26.1102 10.27 25.9302 9.39 25.9302H7.29V39.0702H9.87C10.53 39.0702 11.12 38.9902 11.64 38.8302C12.16 38.6502 12.57 38.3702 12.87 37.9902C13.19 37.5902 13.35 37.0502 13.35 36.3702C13.35 35.9302 13.26 35.5502 13.08 35.2302C12.9 34.9102 12.65 34.6502 12.33 34.4502C12.01 34.2502 11.64 34.1102 11.22 34.0302C10.82 33.9302 10.37 33.8802 9.87 33.8802H6V31.1202H10.44C11.46 31.1202 12.45 31.2302 13.41 31.4502C14.37 31.6702 15.24 32.0302 16.02 32.5302C16.8 33.0102 17.42 33.6302 17.88 34.3902C18.36 35.1302 18.6 36.0302 18.6 37.0902C18.6 38.4902 18.26 39.6202 17.58 40.4802C16.92 41.3402 15.98 41.9802 14.76 42.4002C13.54 42.8002 12.1 43.0002 10.44 43.0002H2.22V22.0002H9.93C11.39 22.0002 12.67 22.2002 13.77 22.6002C14.89 22.9802 15.77 23.5702 16.41 24.3702C17.07 25.1502 17.4 26.1402 17.4 27.3402C17.4 28.4402 17.07 29.3802 16.41 30.1602C15.77 30.9402 14.89 31.5402 13.77 31.9602C12.67 32.3602 11.39 32.5602 9.93 32.5602H6ZM40.7719 27.2802L21.5419 44.0502L21.6919 37.7202L40.9219 20.9502L40.7719 27.2802ZM26.4019 22.0002V39.0702L21.5419 44.0502V22.0002H26.4019ZM40.9219 20.9502V43.0002H36.0319V26.1102L40.9219 20.9502ZM42.6602 26.5302V22.0002H59.2802V26.5302H53.4902V43.0002H48.4202V26.5302H42.6602ZM61.2884 38.9502L61.6484 35.0802H72.0584L72.3884 38.9502H61.2884ZM66.7784 29.7102L63.8384 36.4902L64.0784 37.6002L61.4684 43.0002H55.7384L66.7784 20.6802L77.8484 43.0002H72.0884L69.5684 37.8102L69.7484 36.5202L66.7784 29.7102ZM84.8489 32.2902L83.5889 43.0002H78.2489L81.6389 20.9502L90.5789 33.7602L99.5489 20.9502L102.939 43.0002H97.5989L96.3389 32.2902L90.5789 41.0502L84.8489 32.2902ZM124.798 27.2802L105.568 44.0502L105.718 37.7202L124.948 20.9502L124.798 27.2802ZM110.428 22.0002V39.0702L105.568 44.0502V22.0002H110.428ZM124.948 20.9502V43.0002H120.058V26.1102L124.948 20.9502ZM130.196 34.2102V29.6502H146.096V34.2102H130.196ZM142.886 22.0002H147.956V43.0002H142.886V22.0002ZM128.786 22.0002H133.856V43.0002H128.786V22.0002Z" fill="#00582A"/>
</g>
<defs>
<filter id="filter0_di_601_1150" x="130.629" y="4.00142" width="96.6617" height="77.3141" filterUnits="userSpaceOnUse" color-interpolation-filters="sRGB">
<feFlood flood-opacity="0" result="BackgroundImageFix"/>
<feColorMatrix in="SourceAlpha" type="matrix" values="0 0 0 0 0 0 0 0 0 0 0 0 0 0 0 0 0 0 127 0" result="hardAlpha"/>
<feOffset dx="-2" dy="6"/>
<feGaussianBlur stdDeviation="5.1"/>
<feComposite in2="hardAlpha" operator="out"/>
<feColorMatrix type="matrix" values="0 0 0 0 0 0 0 0 0 0 0 0 0 0 0 0 0 0 0.1 0"/>
<feBlend mode="normal" in2="BackgroundImageFix" result="effect1_dropShadow_601_1150"/>
<feBlend mode="normal" in="SourceGraphic" in2="effect1_dropShadow_601_1150" result="shape"/>
<feColorMatrix in="SourceAlpha" type="matrix" values="0 0 0 0 0 0 0 0 0 0 0 0 0 0 0 0 0 0 127 0" result="hardAlpha"/>
<feOffset dy="4"/>
<feGaussianBlur stdDeviation="2"/>
<feComposite in2="hardAlpha" operator="arithmetic" k2="-1" k3="1"/>
<feColorMatrix type="matrix" values="0 0 0 0 0 0 0 0 0 0 0 0 0 0 0 0 0 0 0.06 0"/>
<feBlend mode="normal" in2="shape" result="effect2_innerShadow_601_1150"/>
</filter>
<filter id="filter1_di_601_1150" x="130.629" y="14.3322" width="66.9835" height="66.9833" filterUnits="userSpaceOnUse" color-interpolation-filters="sRGB">
<feFlood flood-opacity="0" result="BackgroundImageFix"/>
<feColorMatrix in="SourceAlpha" type="matrix" values="0 0 0 0 0 0 0 0 0 0 0 0 0 0 0 0 0 0 127 0" result="hardAlpha"/>
<feOffset dx="-2" dy="6"/>
<feGaussianBlur stdDeviation="5.1"/>
<feComposite in2="hardAlpha" operator="out"/>
<feColorMatrix type="matrix" values="0 0 0 0 0 0 0 0 0 0 0 0 0 0 0 0 0 0 0.1 0"/>
<feBlend mode="normal" in2="BackgroundImageFix" result="effect1_dropShadow_601_1150"/>
<feBlend mode="normal" in="SourceGraphic" in2="effect1_dropShadow_601_1150" result="shape"/>
<feColorMatrix in="SourceAlpha" type="matrix" values="0 0 0 0 0 0 0 0 0 0 0 0 0 0 0 0 0 0 127 0" result="hardAlpha"/>
<feOffset dx="4" dy="4"/>
<feGaussianBlur stdDeviation="3.35"/>
<feComposite in2="hardAlpha" operator="arithmetic" k2="-1" k3="1"/>
<feColorMatrix type="matrix" values="0 0 0 0 0 0 0 0 0 0 0 0 0 0 0 0 0 0 0.06 0"/>
<feBlend mode="normal" in2="shape" result="effect2_innerShadow_601_1150"/>
</filter>
<filter id="filter2_i_601_1150" x="143.259" y="23.5332" width="35.3267" height="35.126" filterUnits="userSpaceOnUse" color-interpolation-filters="sRGB">
<feFlood flood-opacity="0" result="BackgroundImageFix"/>
<feBlend mode="normal" in="SourceGraphic" in2="BackgroundImageFix" result="shape"/>
<feColorMatrix in="SourceAlpha" type="matrix" values="0 0 0 0 0 0 0 0 0 0 0 0 0 0 0 0 0 0 127 0" result="hardAlpha"/>
<feOffset dx="-8" dy="-6"/>
<feGaussianBlur stdDeviation="5.5"/>
<feComposite in2="hardAlpha" operator="arithmetic" k2="-1" k3="1"/>
<feColorMatrix type="matrix" values="0 0 0 0 0 0 0 0 0 0.344576 0 0 0 0 0.166545 0 0 0 1 0"/>
<feBlend mode="normal" in2="shape" result="effect1_innerShadow_601_1150"/>
</filter>
<filter id="filter3_i_601_1150" x="175.616" y="10.6882" width="32.3457" height="32.2466" filterUnits="userSpaceOnUse" color-interpolation-filters="sRGB">
<feFlood flood-opacity="0" result="BackgroundImageFix"/>
<feBlend mode="normal" in="SourceGraphic" in2="BackgroundImageFix" result="shape"/>
<feColorMatrix in="SourceAlpha" type="matrix" values="0 0 0 0 0 0 0 0 0 0 0 0 0 0 0 0 0 0 127 0" result="hardAlpha"/>
<feOffset dx="-8" dy="-6"/>
<feGaussianBlur stdDeviation="5.5"/>
<feComposite in2="hardAlpha" operator="arithmetic" k2="-1" k3="1"/>
<feColorMatrix type="matrix" values="0 0 0 0 0 0 0 0 0 0.344576 0 0 0 0 0.166545 0 0 0 1 0"/>
<feBlend mode="normal" in2="shape" result="effect1_innerShadow_601_1150"/>
</filter>
<filter id="filter4_i_601_1150" x="2.22021" y="20.6802" width="145.736" height="27.3701" filterUnits="userSpaceOnUse" color-interpolation-filters="sRGB">
<feFlood flood-opacity="0" result="BackgroundImageFix"/>
<feBlend mode="normal" in="SourceGraphic" in2="BackgroundImageFix" result="shape"/>
<feColorMatrix in="SourceAlpha" type="matrix" values="0 0 0 0 0 0 0 0 0 0 0 0 0 0 0 0 0 0 127 0" result="hardAlpha"/>
<feOffset dy="4"/>
<feGaussianBlur stdDeviation="2.75"/>
<feComposite in2="hardAlpha" operator="arithmetic" k2="-1" k3="1"/>
<feColorMatrix type="matrix" values="0 0 0 0 0.348036 0 0 0 0 0.690805 0 0 0 0 0.559411 0 0 0 1 0"/>
<feBlend mode="normal" in2="shape" result="effect1_innerShadow_601_1150"/>
</filter>
</defs>
</svg>
