<svg width="26.306641" height="26.500000" viewBox="0 0 26.3066 26.5" fill="none" xmlns="http://www.w3.org/2000/svg" xmlns:xlink="http://www.w3.org/1999/xlink">
	<desc>
			Created with Pixso.
	</desc>
	<defs/>
	<path id="Vector" d="M1.07 8.09C1.74 6.68 3.18 5.82 6.06 4.11L7.79 3.08C10.4 1.52 11.71 0.75 13.15 0.75C14.59 0.75 15.9 1.52 18.51 3.08L20.24 4.11C23.11 5.82 24.55 6.68 25.23 8.09C25.91 9.5 25.67 11.15 25.19 14.44L24.84 16.86C24.24 21.1 23.93 23.22 22.46 24.48C20.99 25.75 18.84 25.75 14.53 25.75L11.77 25.75C7.46 25.75 5.3 25.75 3.83 24.48C2.37 23.22 2.06 21.1 1.45 16.86L1.1 14.44C0.63 11.15 0.39 9.5 1.07 8.09Z" stroke="#00582A" stroke-opacity="1.000000" stroke-width="1.500000"/>
	<path id="Vector" d="M16.9 14.5L13.15 14.5L9.4 14.5M13.15 14.5L13.15 10.75M13.15 14.5L13.15 18.25" stroke="#00582A" stroke-opacity="1.000000" stroke-width="1.500000" stroke-linecap="round"/>
</svg>
