<svg width="25.000000" height="31.666504" viewBox="0 0 25 31.6665" fill="none" xmlns="http://www.w3.org/2000/svg" xmlns:xlink="http://www.w3.org/1999/xlink">
	<desc>
			Created with Pixso.
	</desc>
	<defs/>
	<path id="Vector" d="M23.33 26.66C23.33 27.99 22.8 29.26 21.86 30.2C20.93 31.13 19.66 31.66 18.33 31.66L6.66 31.66C5.33 31.66 4.06 31.13 3.13 30.2C2.19 29.26 1.66 27.99 1.66 26.66L1.66 6.66L0 6.66L0 1.66L7.5 1.66L9.16 0L15.83 0L17.5 1.66L25 1.66L25 6.66L23.33 6.66L23.33 26.66ZM3.33 6.66L3.33 26.66C3.33 27.55 3.68 28.39 4.31 29.02C4.93 29.64 5.78 30 6.66 30L18.33 30C19.21 30 20.06 29.64 20.68 29.02C21.31 28.39 21.66 27.55 21.66 26.66L21.66 6.66L3.33 6.66ZM23.33 5L23.33 3.33L16.66 3.33L15 1.66L10 1.66L8.33 3.33L1.66 3.33L1.66 5L23.33 5ZM6.66 10L8.33 10L8.33 26.66L6.66 26.66L6.66 10ZM16.66 10L18.33 10L18.33 26.66L16.66 26.66L16.66 10Z" fill="#909090" fill-opacity="1.000000" fill-rule="nonzero"/>
</svg>
