<svg width="24.000000" height="22.000000" viewBox="0 0 24 22" fill="none" xmlns="http://www.w3.org/2000/svg" xmlns:xlink="http://www.w3.org/1999/xlink">
	<desc>
			Created with Pixso.
	</desc>
	<defs/>
	<path id="Vector" d="M12 3.38L13.64 6.51L17.14 7.02L14.57 9.3L15.42 12.69L12 10.78L8.57 12.69L9.42 9.3L6.85 7.02L10.46 6.51L12 3.38Z" fill="#00582A" fill-opacity="1.000000" fill-rule="nonzero"/>
	<path id="Vector" d="M13.48 22L12 21.15L15.42 15.23L20.57 15.23C20.79 15.23 21.02 15.18 21.22 15.1C21.43 15.01 21.62 14.89 21.78 14.73C21.94 14.57 22.07 14.39 22.15 14.18C22.24 13.98 22.28 13.76 22.28 13.53L22.28 3.38C22.28 3.16 22.24 2.94 22.15 2.73C22.07 2.53 21.94 2.34 21.78 2.18C21.62 2.03 21.43 1.9 21.22 1.82C21.02 1.73 20.79 1.69 20.57 1.69L3.42 1.69C3.2 1.69 2.97 1.73 2.77 1.82C2.56 1.9 2.37 2.03 2.21 2.18C2.05 2.34 1.92 2.53 1.84 2.73C1.75 2.94 1.71 3.16 1.71 3.38L1.71 13.53C1.71 13.76 1.75 13.98 1.84 14.18C1.92 14.39 2.05 14.57 2.21 14.73C2.37 14.89 2.56 15.01 2.77 15.1C2.97 15.18 3.2 15.23 3.42 15.23L11.14 15.23L11.14 16.92L3.42 16.92C2.51 16.92 1.64 16.56 1 15.93C0.35 15.29 0 14.43 0 13.53L0 3.38C0 2.48 0.35 1.62 1 0.99C1.64 0.35 2.51 0 3.42 0L20.57 0C21.48 0 22.35 0.35 22.99 0.99C23.64 1.62 24 2.48 24 3.38L24 13.53C24 14.43 23.64 15.29 22.99 15.93C22.35 16.56 21.48 16.92 20.57 16.92L16.42 16.92L13.48 22Z" fill="#00582A" fill-opacity="1.000000" fill-rule="nonzero"/>
</svg>
