<svg width="25.500000" height="23.500000" viewBox="0 0 25.5 23.5" fill="none" xmlns="http://www.w3.org/2000/svg" xmlns:xlink="http://www.w3.org/1999/xlink">
	<desc>
			Created with Pixso.
	</desc>
	<defs/>
	<path id="Vector" d="M15.15 8.08L19.95 8.08M15.15 12.36L18.75 12.36" stroke="#00582A" stroke-opacity="1.000000" stroke-width="1.500000" stroke-linejoin="round" stroke-linecap="round"/>
	<path id="Vector" d="M18.75 0.75C22.06 0.75 24.75 3.48 24.75 6.86L24.75 16.63C24.75 20.01 22.06 22.75 18.75 22.75L6.75 22.75C3.43 22.75 0.75 20.01 0.75 16.63L0.75 6.86C0.75 3.48 3.43 0.75 6.75 0.75L18.75 0.75Z" stroke="#00582A" stroke-opacity="1.000000" stroke-width="1.500000" stroke-linejoin="round"/>
	<path id="Vector" d="M4.34 16.63C5.79 13.48 11.19 13.27 12.74 16.63M10.24 9.81C9.78 10.27 9.17 10.52 8.54 10.52C7.9 10.52 7.29 10.27 6.84 9.81C6.39 9.35 6.14 8.73 6.14 8.08C6.14 7.43 6.39 6.81 6.84 6.35C7.29 5.89 7.9 5.63 8.54 5.63C9.17 5.63 9.78 5.89 10.24 6.35C10.68 6.81 10.94 7.43 10.94 8.08C10.94 8.73 10.68 9.35 10.24 9.81Z" stroke="#00582A" stroke-opacity="1.000000" stroke-width="1.500000" stroke-linejoin="round" stroke-linecap="round"/>
</svg>
