<svg width="24.000000" height="27.000000" viewBox="0 0 24 27" fill="none" xmlns="http://www.w3.org/2000/svg" xmlns:xlink="http://www.w3.org/1999/xlink">
	<desc>
			Created with Pixso.
	</desc>
	<defs/>
	<path id="Vector" d="M7 12C7 10.67 7.52 9.4 8.46 8.46C9.39 7.52 10.67 7 12 7C13.32 7 14.6 7.52 15.53 8.46C16.47 9.4 17 10.67 17 12C17 13.32 16.47 14.59 15.53 15.53C14.6 16.47 13.32 17 12 17C10.67 17 9.39 16.47 8.46 15.53C7.52 14.59 7 13.32 7 12ZM12 8.57C11.09 8.57 10.21 8.93 9.57 9.58C8.93 10.22 8.57 11.09 8.57 12C8.57 12.9 8.93 13.77 9.57 14.41C10.21 15.06 11.09 15.42 12 15.42C12.9 15.42 13.78 15.06 14.42 14.41C15.06 13.77 15.42 12.9 15.42 12C15.42 11.09 15.06 10.22 14.42 9.58C13.78 8.93 12.9 8.57 12 8.57Z" fill="#00582A" fill-opacity="1.000000" fill-rule="evenodd"/>
	<path id="Vector" d="M0.03 9.93C0.28 7.22 1.61 4.7 3.77 2.86C5.93 1.02 8.75 0 11.69 0L12.3 0C15.24 0 18.06 1.02 20.22 2.86C22.38 4.7 23.71 7.22 23.96 9.93C24.22 12.95 23.21 15.95 21.14 18.29L14.39 25.95C14.1 26.27 13.73 26.54 13.32 26.72C12.9 26.9 12.46 27 12 27C11.53 27 11.09 26.9 10.67 26.72C10.26 26.54 9.89 26.27 9.6 25.95L2.85 18.29C0.78 15.95 -0.23 12.95 0.03 9.93ZM11.69 1.95C9.28 1.96 6.97 2.79 5.21 4.3C3.44 5.81 2.35 7.88 2.15 10.09C1.92 12.6 2.76 15.1 4.49 17.05L11.25 24.71C11.34 24.81 11.45 24.89 11.58 24.95C11.71 25.01 11.85 25.04 12 25.04C12.14 25.04 12.28 25.01 12.41 24.95C12.54 24.89 12.66 24.81 12.75 24.71L19.51 17.05C21.23 15.1 22.07 12.6 21.84 10.09C21.64 7.88 20.55 5.81 18.78 4.3C17.02 2.79 14.7 1.96 12.3 1.95L11.69 1.95Z" fill="#00582A" fill-opacity="1.000000" fill-rule="evenodd"/>
</svg>
