<svg width="30.000000" height="30.000000" viewBox="0 0 30 30" fill="none" xmlns="http://www.w3.org/2000/svg" xmlns:xlink="http://www.w3.org/1999/xlink">
		<clipPath id="clip554_15273">
			<rect id="uit:telegram-alt" rx="0.000000" width="29.000000" height="29.000000" transform="translate(0.500000 0.500000)" fill="white" fill-opacity="0"/>
		</clipPath>
	<rect id="uit:telegram-alt" rx="0.000000" width="29.000000" height="29.000000" transform="translate(0.500000 0.500000)" fill="#FFFFFF" fill-opacity="0"/>
		<path id="Vector" d="M27.43 3.45C27.16 3.23 26.83 3.08 26.49 3.03C26.14 2.97 25.79 3.01 25.46 3.15L3.07 12.19C2.7 12.34 2.4 12.59 2.18 12.92C1.97 13.25 1.86 13.63 1.87 14.02C1.88 14.41 2.01 14.79 2.24 15.11C2.47 15.43 2.79 15.66 3.16 15.79L8 17.47L10.61 26.13C10.62 26.14 10.64 26.16 10.64 26.17C10.67 26.24 10.71 26.3 10.76 26.36C10.83 26.44 10.93 26.51 11.04 26.54C11.05 26.54 11.06 26.55 11.08 26.56L11.08 26.56L11.09 26.56C11.18 26.58 11.28 26.57 11.38 26.54L11.41 26.54C11.5 26.51 11.58 26.45 11.65 26.38C11.66 26.38 11.67 26.37 11.67 26.37L15.44 22.21L20.94 26.47C21.27 26.73 21.68 26.87 22.11 26.87C23.02 26.87 23.82 26.23 24 25.33L28.08 5.31C28.15 4.97 28.13 4.62 28.01 4.29C27.9 3.96 27.69 3.67 27.43 3.45L27.43 3.45ZM11.98 19.11L11.1 23.41L9.25 17.31L18.4 12.55L12.15 18.8C12.06 18.88 12 18.99 11.98 19.11ZM22.78 25.08C22.76 25.19 22.7 25.3 22.63 25.38C22.55 25.47 22.45 25.54 22.35 25.58C22.24 25.62 22.12 25.63 22.01 25.61C21.9 25.6 21.79 25.55 21.7 25.48L15.75 20.87C15.63 20.77 15.47 20.73 15.31 20.74C15.16 20.75 15.01 20.83 14.91 20.94L12.28 23.83L13.16 19.55L22.15 10.56C22.26 10.46 22.32 10.32 22.33 10.17C22.34 10.02 22.3 9.87 22.21 9.75C22.13 9.63 22 9.55 21.85 9.51C21.71 9.48 21.55 9.5 21.42 9.56L8.47 16.31L3.57 14.61C3.44 14.57 3.33 14.48 3.25 14.37C3.17 14.26 3.12 14.13 3.12 14C3.11 13.86 3.15 13.72 3.23 13.6C3.3 13.49 3.41 13.4 3.54 13.35L25.93 4.31C26.05 4.26 26.17 4.24 26.29 4.26C26.42 4.28 26.53 4.33 26.63 4.41C26.72 4.49 26.79 4.59 26.83 4.7C26.87 4.82 26.88 4.94 26.86 5.06L22.78 25.08Z" fill="#1E1E1E" fill-opacity="1.000000" fill-rule="nonzero"/>
</svg>
