<svg width="30.000000" height="30.000000" viewBox="0 0 30 30" fill="none" xmlns="http://www.w3.org/2000/svg" xmlns:xlink="http://www.w3.org/1999/xlink">
	<desc>
			Created with Pixso.
	</desc>
	<defs>
		<clipPath id="clip554_15270">
			<rect id="solar:link-bold" rx="0.000000" width="29.000000" height="29.000000" transform="translate(0.500000 0.500000)" fill="white" fill-opacity="0"/>
		</clipPath>
	</defs>
	<rect id="solar:link-bold" rx="0.000000" width="29.000000" height="29.000000" transform="translate(0.500000 0.500000)" fill="#FFFFFF" fill-opacity="0"/>
	<g clip-path="url(#clip554_15270)">
		<path id="Vector" d="M19.66 4.85C21.45 3.05 24.07 3.01 25.52 4.47C26.98 5.93 26.94 8.57 25.14 10.37L22.11 13.41C21.94 13.59 21.85 13.83 21.85 14.07C21.85 14.32 21.95 14.55 22.13 14.73C22.3 14.9 22.54 15 22.78 15C23.03 15 23.26 14.91 23.44 14.73L26.47 11.69C28.86 9.29 29.16 5.47 26.85 3.15C24.54 0.83 20.72 1.13 18.33 3.53L12.27 9.61C9.88 12.01 9.58 15.84 11.89 18.16C11.98 18.25 12.08 18.32 12.19 18.37C12.31 18.42 12.43 18.44 12.56 18.44C12.68 18.45 12.8 18.42 12.92 18.37C13.03 18.33 13.14 18.26 13.23 18.17C13.32 18.08 13.38 17.98 13.43 17.86C13.48 17.75 13.5 17.62 13.5 17.5C13.5 17.38 13.48 17.25 13.43 17.14C13.38 17.02 13.31 16.92 13.22 16.83C11.76 15.37 11.8 12.73 13.6 10.93L19.66 4.85Z" fill="#00582A" fill-opacity="1.000000" fill-rule="nonzero"/>
		<path id="Vector" d="M18.1 11.83C17.93 11.66 17.69 11.56 17.44 11.56C17.19 11.56 16.95 11.65 16.77 11.83C16.6 12.01 16.5 12.24 16.5 12.49C16.5 12.74 16.6 12.98 16.77 13.16C18.23 14.62 18.19 17.26 16.39 19.06L10.33 25.14C8.54 26.94 5.92 26.98 4.47 25.52C3.01 24.06 3.05 21.42 4.85 19.62L7.88 16.58C7.96 16.49 8.03 16.39 8.08 16.27C8.13 16.16 8.15 16.04 8.15 15.91C8.15 15.79 8.13 15.67 8.08 15.56C8.03 15.44 7.96 15.34 7.87 15.25C7.79 15.17 7.68 15.1 7.57 15.05C7.46 15 7.33 14.98 7.21 14.98C7.09 14.98 6.97 15 6.85 15.05C6.74 15.1 6.64 15.17 6.55 15.25L3.52 18.3C1.13 20.7 0.83 24.52 3.14 26.84C5.45 29.17 9.27 28.86 11.66 26.46L17.72 20.38C20.11 17.98 20.41 14.15 18.1 11.83Z" fill="#00582A" fill-opacity="1.000000" fill-rule="nonzero"/>
	</g>
</svg>
