<svg width="30.000000" height="30.000000" viewBox="0 0 30 30" fill="none" xmlns="http://www.w3.org/2000/svg" xmlns:xlink="http://www.w3.org/1999/xlink">
		<clipPath id="clip554_15279">
			<rect id="material-symbols-light:mail-outline" rx="0.000000" width="29.000000" height="29.000000" transform="translate(0.500000 0.500000)" fill="white" fill-opacity="0"/>
		</clipPath>
	<rect id="material-symbols-light:mail-outline" rx="0.000000" width="29.000000" height="29.000000" transform="translate(0.500000 0.500000)" fill="#FFFFFF" fill-opacity="0"/>
		<path id="Vector" d="M5.76 23.75C5.19 23.75 4.71 23.55 4.32 23.17C3.94 22.78 3.75 22.3 3.75 21.73L3.75 8.27C3.75 7.69 3.94 7.21 4.32 6.82C4.71 6.44 5.19 6.25 5.76 6.25L24.23 6.25C24.8 6.25 25.28 6.44 25.67 6.82C26.05 7.21 26.25 7.69 26.25 8.27L26.25 21.73C26.25 22.3 26.05 22.78 25.67 23.17C25.28 23.55 24.8 23.75 24.23 23.75L5.76 23.75ZM15 15.14L5 8.6L5 21.73C5 21.95 5.07 22.13 5.21 22.28C5.36 22.42 5.54 22.5 5.76 22.5L24.23 22.5C24.45 22.5 24.63 22.42 24.78 22.28C24.92 22.13 25 21.95 25 21.73L25 8.6L15 15.14ZM15 13.75L24.61 7.5L5.38 7.5L15 13.75ZM5 8.6L5 7.5L5 21.73C5 21.95 5.07 22.13 5.21 22.28C5.36 22.42 5.54 22.5 5.76 22.5L5 22.5L5 8.6Z" fill="#1E1E1E" fill-opacity="1.000000" fill-rule="nonzero"/>
</svg>
