<svg width="30.000000" height="30.000000" viewBox="0 0 30 30" fill="none" xmlns="http://www.w3.org/2000/svg" xmlns:xlink="http://www.w3.org/1999/xlink">
		<clipPath id="clip554_15275">
			<rect id="streamline-logos:whatsapp-logo" rx="0.000000" width="29.000000" height="29.000000" transform="translate(0.500000 0.500000)" fill="white" fill-opacity="0"/>
		</clipPath>
	<rect id="streamline-logos:whatsapp-logo" rx="0.000000" width="29.000000" height="29.000000" transform="translate(0.500000 0.500000)" fill="#FFFFFF" fill-opacity="0"/>
		<path id="Vector" d="M11.56 18.44C9.05 15.93 7.2 10.92 9.37 8.75C10 8.12 10.87 8.04 11.4 8.06C11.7 8.08 11.97 8.26 12.15 8.51L13.34 10.18C13.51 10.42 13.59 10.71 13.57 11.01C13.54 11.3 13.41 11.58 13.2 11.79L12.08 12.91C12.29 13.54 12.95 15.04 13.95 16.04C14.95 17.04 16.45 17.7 17.08 17.91L18.2 16.79C18.41 16.58 18.69 16.45 18.99 16.42C19.28 16.4 19.57 16.48 19.82 16.65L21.48 17.84C21.73 18.02 21.91 18.29 21.93 18.59C21.95 19.12 21.88 19.99 21.25 20.62C19.07 22.79 14.06 20.94 11.56 18.44Z" stroke="#1E1E1E" stroke-opacity="1.000000" stroke-width="1.000000" stroke-linejoin="round"/>
		<path id="Vector" d="M28.12 15C28.12 7.75 22.24 1.87 15 1.87C7.75 1.87 1.87 7.75 1.87 15C1.87 17.39 2.51 19.63 3.63 21.56L2.53 27.46L8.43 26.36C10.43 27.52 12.69 28.12 15 28.12C22.24 28.12 28.12 22.24 28.12 15Z" stroke="#1E1E1E" stroke-opacity="1.000000" stroke-width="1.000000" stroke-linejoin="round"/>
</svg>
