<svg width="35.000000" height="35.000000" viewBox="0 0 35 35" fill="none" xmlns="http://www.w3.org/2000/svg" xmlns:xlink="http://www.w3.org/1999/xlink">
	<path id="Vector" d="M28.73 29.83C29.01 29.55 29.16 29.18 29.16 28.8L29.16 26.98C29.17 22.89 23.37 19.68 17.5 19.68C11.62 19.68 5.83 22.89 5.83 26.98L5.83 28.8C5.83 29.18 5.98 29.55 6.26 29.83C6.53 30.1 6.9 30.26 7.29 30.26L27.7 30.26C28.09 30.26 28.46 30.1 28.73 29.83ZM22.35 12C22.09 12.64 21.7 13.22 21.21 13.71C20.72 14.2 20.14 14.58 19.51 14.85C18.87 15.11 18.19 15.25 17.5 15.25C16.81 15.25 16.12 15.11 15.48 14.85C14.85 14.58 14.27 14.2 13.78 13.71C13.29 13.22 12.9 12.64 12.64 12C12.38 11.36 12.24 10.68 12.24 9.99C12.24 8.6 12.79 7.26 13.78 6.27C14.76 5.29 16.1 4.73 17.5 4.73C18.89 4.73 20.23 5.29 21.21 6.27C22.2 7.26 22.75 8.6 22.75 9.99C22.75 10.68 22.62 11.36 22.35 12Z" stroke="#7C7C7C" stroke-opacity="1.000000" stroke-width="1.500000" stroke-linejoin="round"/>
</svg>
