<svg width="35" height="35" viewBox="0 0 35 35" fill="none" xmlns="http://www.w3.org/2000/svg">
<path d="M0 17.5C0 7.83502 7.83502 0 17.5 0V0C27.165 0 35 7.83502 35 17.5V17.5C35 27.165 27.165 35 17.5 35V35C7.83502 35 0 27.165 0 17.5V17.5Z" fill="#00582A"/>
<path d="M25.6693 23.0998L21.562 19.3654C21.368 19.1887 21.1128 19.0944 20.8505 19.1025C20.5882 19.1106 20.3393 19.2205 20.1565 19.4089L17.7386 21.8954C17.1566 21.7843 15.9866 21.4196 14.7822 20.2182C13.5777 19.0128 13.213 17.8397 13.1049 17.2617L15.5895 14.8428C15.7778 14.6601 15.8877 14.4112 15.8958 14.1489C15.9039 13.8866 15.8096 13.6314 15.6329 13.4374L11.8995 9.3311C11.7227 9.13645 11.477 9.01839 11.2146 9.00197C10.9521 8.98556 10.6936 9.07209 10.494 9.2432L8.30139 11.1236C8.1267 11.2989 8.02243 11.5322 8.00837 11.7793C7.99321 12.0319 7.70424 18.0155 12.344 22.6573C16.3917 26.704 21.462 27 22.8584 27C23.0625 27 23.1878 26.9939 23.2211 26.9919C23.468 26.9773 23.7009 26.8727 23.8758 26.6979L25.7552 24.5043C25.927 24.3053 26.0142 24.047 25.9981 23.7846C25.9821 23.5222 25.8641 23.2765 25.6693 23.0998Z" fill="white"/>
</svg>
