<svg width="598.000000" height="48.000000" viewBox="0 0 598 48" fill="none" xmlns="http://www.w3.org/2000/svg" xmlns:xlink="http://www.w3.org/1999/xlink">
	<desc>
			Created with Pixso.
	</desc>
	<defs>
		<filter id="filter_3_16940_dd" x="0.000000" y="0.000000" width="598.000000" height="48.000000" filterUnits="userSpaceOnUse" color-interpolation-filters="sRGB">
			<feFlood flood-opacity="0" result="BackgroundImageFix"/>
			<feBlend mode="normal" in="SourceGraphic" in2="BackgroundImageFix" result="shape"/>
			<feColorMatrix in="SourceAlpha" type="matrix" values="0 0 0 0 0 0 0 0 0 0 0 0 0 0 0 0 0 0 127 0" result="hardAlpha"/>
			<feOffset dx="-4" dy="4"/>
			<feGaussianBlur stdDeviation="6.66667"/>
			<feComposite in2="hardAlpha" operator="arithmetic" k2="-1" k3="1"/>
			<feColorMatrix type="matrix" values="0 0 0 0 0 0 0 0 0 0 0 0 0 0 0 0 0 0 0.1 0"/>
			<feBlend mode="normal" in2="shape" result="effect_innerShadow_1"/>
		</filter>
	</defs>
	<g filter="url(#filter_3_16940_dd)">
		<path id="Union" d="M574 0C587.255 0 598 10.7451 598 24C598 37.2549 587.255 48 574 48C564.566 48 556.404 42.5569 552.481 34.64C547.279 32.1962 542.591 32.2506 537.512 34.6523C533.588 42.5626 525.429 48 516 48L24 48C10.7452 48 0 37.2549 0 24C0 10.7451 10.7452 0 24 0L516 0C525.975 0 534.529 6.08557 538.151 14.7466C542.835 17.1067 547.128 17.2451 551.702 15.1058C555.236 6.25427 563.888 0 574 0Z" clip-rule="evenodd" fill="#F9F9F9" fill-opacity="1.000000" fill-rule="evenodd"/>
	</g>
</svg>
