<svg width="30.000000" height="30.000000" viewBox="0 0 30 30" fill="none" xmlns="http://www.w3.org/2000/svg" xmlns:xlink="http://www.w3.org/1999/xlink">
	<desc>
			Created with Pixso.
	</desc>
	<defs>
		<clipPath id="clip3_16905">
			<rect id="material-symbols-light:search-rounded" rx="0.000000" width="29.000000" height="29.000000" transform="translate(0.500000 0.500000)" fill="white" fill-opacity="0"/>
		</clipPath>
	</defs>
	<rect id="material-symbols-light:search-rounded" rx="0.000000" width="29.000000" height="29.000000" transform="translate(0.500000 0.500000)" fill="#FFFFFF" fill-opacity="0"/>
	<g clip-path="url(#clip3_16905)">
		<path id="Vector" d="M11.92 19.03C9.92 19.03 8.23 18.34 6.84 16.95C5.45 15.56 4.76 13.87 4.76 11.87C4.76 9.87 5.45 8.18 6.84 6.79C8.23 5.4 9.92 4.71 11.92 4.71C13.92 4.71 15.61 5.4 17 6.79C18.39 8.18 19.08 9.87 19.08 11.87C19.08 12.74 18.93 13.58 18.62 14.39C18.31 15.2 17.91 15.9 17.41 16.48L24.79 23.86C24.91 23.98 24.97 24.12 24.98 24.29C24.99 24.46 24.93 24.61 24.79 24.75C24.66 24.88 24.51 24.95 24.35 24.95C24.19 24.95 24.04 24.88 23.91 24.75L16.52 17.36C15.9 17.89 15.18 18.3 14.37 18.6C13.56 18.89 12.74 19.03 11.92 19.03L11.92 19.03ZM11.92 17.78C13.58 17.78 14.98 17.21 16.12 16.07C17.26 14.93 17.83 13.53 17.83 11.87C17.83 10.21 17.26 8.81 16.12 7.67C14.98 6.53 13.58 5.96 11.92 5.96C10.26 5.96 8.86 6.53 7.72 7.67C6.58 8.81 6.01 10.21 6.01 11.87C6 13.53 6.58 14.93 7.72 16.07C8.86 17.21 10.26 17.78 11.92 17.78L11.92 17.78Z" fill="#00582A" fill-opacity="1.000000" fill-rule="nonzero"/>
	</g>
</svg>
