<svg width="16.256348" height="16.246582" viewBox="0 0 16.2563 16.2466" fill="none" xmlns="http://www.w3.org/2000/svg" xmlns:xlink="http://www.w3.org/1999/xlink">
	<desc>
			Created with Pixso.
	</desc>
	<defs/>
	<path id="Vector" d="M9.38 0.74C8.84 -0.25 7.41 -0.25 6.86 0.74C6.15 2.04 5.56 3.4 5.1 4.81C5.08 4.87 5.04 4.92 4.99 4.95C4.94 4.98 4.89 5 4.83 5C3.6 5.03 2.39 5.15 1.18 5.36C0.07 5.56 -0.42 6.89 0.42 7.72C0.53 7.83 0.64 7.93 0.75 8.03C1.56 8.81 2.43 9.53 3.33 10.19C3.37 10.22 3.4 10.26 3.42 10.3C3.44 10.35 3.44 10.4 3.42 10.45C2.97 11.82 2.64 13.23 2.45 14.67C2.29 15.85 3.55 16.58 4.53 16.08C5.72 15.47 6.86 14.76 7.93 13.97C7.99 13.93 8.05 13.9 8.12 13.9C8.19 13.9 8.26 13.93 8.32 13.97C9.39 14.76 10.53 15.47 11.72 16.08C12.7 16.58 13.96 15.85 13.8 14.67C13.61 13.23 13.28 11.82 12.82 10.45C12.81 10.4 12.81 10.35 12.83 10.3C12.84 10.26 12.87 10.22 12.91 10.19C13.94 9.44 14.91 8.61 15.82 7.72C16.67 6.89 16.18 5.56 15.06 5.36C13.86 5.15 12.64 5.03 11.42 5C11.36 5 11.3 4.98 11.25 4.95C11.2 4.92 11.17 4.87 11.14 4.81C10.69 3.4 10.1 2.04 9.38 0.74Z" fill="#FFA837" fill-opacity="1.000000" fill-rule="nonzero"/>
</svg>
