<svg width="35.000000" height="35.000000" viewBox="0 0 35 35" fill="none" xmlns="http://www.w3.org/2000/svg" xmlns:xlink="http://www.w3.org/1999/xlink">
		<clipPath id="clip554_15296">
			<rect id="mynaui:star" rx="0.000000" width="34.000000" height="34.000000" transform="translate(0.500000 0.500000)" fill="white" fill-opacity="0"/>
		</clipPath>
	<rect id="mynaui:star" rx="0.000000" width="34.000000" height="34.000000" transform="translate(0.500000 0.500000)" fill="#FFFFFF" fill-opacity="0"/>
		<path id="Vector" d="M18.22 4.57C18 4.44 17.75 4.37 17.5 4.37C17.24 4.37 16.99 4.44 16.77 4.57C16.55 4.69 16.37 4.88 16.25 5.1C15.96 5.63 15.68 6.17 15.41 6.71C14.56 8.43 13.84 10.22 13.25 12.04C13.05 12.67 12.45 13.11 11.76 13.13C9.67 13.18 7.59 13.39 5.53 13.75C4.41 13.95 3.98 15.23 4.78 16.02C4.97 16.2 5.15 16.37 5.34 16.55C6.73 17.87 8.21 19.1 9.76 20.23C10.29 20.63 10.51 21.3 10.31 21.91C9.53 24.25 8.97 26.66 8.65 29.1C8.5 30.2 9.68 30.98 10.7 30.45C12.73 29.41 14.67 28.21 16.51 26.85C16.79 26.64 17.14 26.53 17.5 26.53C17.85 26.53 18.2 26.64 18.48 26.85C20.32 28.21 22.26 29.41 24.29 30.45C25.31 30.98 26.49 30.2 26.34 29.1C26.29 28.69 26.23 28.28 26.16 27.87C25.82 25.85 25.33 23.86 24.68 21.91C24.48 21.3 24.7 20.63 25.23 20.23C26.99 18.95 28.65 17.54 30.21 16.02C31.01 15.23 30.58 13.95 29.45 13.75C27.4 13.39 25.32 13.18 23.23 13.13C22.9 13.12 22.58 13.02 22.32 12.82C22.05 12.63 21.85 12.36 21.74 12.04C20.97 9.64 19.96 7.31 18.74 5.1C18.62 4.88 18.43 4.69 18.22 4.57Z" stroke="#FFA837" stroke-opacity="1.000000" stroke-width="1.500000" stroke-linejoin="round"/>
</svg>
