<svg width="112.000000" height="20.000000" viewBox="0 0 112 20" fill="none" xmlns="http://www.w3.org/2000/svg" xmlns:xlink="http://www.w3.org/1999/xlink">
	<desc>
			Created with Pixso.
	</desc>
	<defs>
		<clipPath id="clip554_16130">
			<rect id="mynaui:star-solid" rx="0.000000" width="19.000000" height="19.000000" transform="translate(69.500000 0.500000)" fill="white" fill-opacity="0"/>
		</clipPath>
		<clipPath id="clip554_16132">
			<rect id="mynaui:star-solid" rx="0.000000" width="19.000000" height="19.000000" transform="translate(92.500000 0.500000)" fill="white" fill-opacity="0"/>
		</clipPath>
		<clipPath id="clip554_16134">
			<rect id="mynaui:star-solid" rx="0.000000" width="19.000000" height="19.000000" transform="translate(46.500000 0.500000)" fill="white" fill-opacity="0"/>
		</clipPath>
		<clipPath id="clip554_16136">
			<rect id="mynaui:star-solid" rx="0.000000" width="19.000000" height="19.000000" transform="translate(23.500000 0.500000)" fill="white" fill-opacity="0"/>
		</clipPath>
		<clipPath id="clip554_16138">
			<rect id="mynaui:star-solid" rx="0.000000" width="19.000000" height="19.000000" transform="translate(0.500000 0.500000)" fill="white" fill-opacity="0"/>
		</clipPath>
	</defs>
	<rect id="mynaui:star-solid" rx="0.000000" width="19.000000" height="19.000000" transform="translate(69.500000 0.500000)" fill="#FFFFFF" fill-opacity="0"/>
	<g clip-path="url(#clip554_16130)">
		<path id="Vector" d="M80.25 2.61C79.71 1.62 78.28 1.62 77.74 2.61C77.02 3.91 76.43 5.28 75.97 6.69C75.95 6.74 75.91 6.79 75.86 6.83C75.82 6.86 75.76 6.88 75.7 6.87C74.48 6.91 73.26 7.03 72.05 7.24C70.94 7.43 70.45 8.77 71.29 9.6C71.4 9.7 71.51 9.8 71.62 9.91C72.43 10.68 73.3 11.4 74.2 12.06C74.25 12.09 74.28 12.13 74.29 12.18C74.31 12.22 74.31 12.28 74.3 12.32C73.84 13.7 73.51 15.11 73.32 16.54C73.16 17.73 74.42 18.46 75.4 17.95C76.59 17.34 77.73 16.64 78.8 15.84C78.86 15.8 78.92 15.78 79 15.78C79.06 15.78 79.13 15.8 79.19 15.84C80.26 16.64 81.4 17.35 82.59 17.95C83.57 18.46 84.83 17.73 84.67 16.54C84.48 15.11 84.15 13.7 83.69 12.32C83.68 12.28 83.68 12.22 83.7 12.18C83.71 12.13 83.75 12.09 83.79 12.06C84.81 11.31 85.78 10.49 86.69 9.6C87.54 8.77 87.05 7.43 85.94 7.24C84.73 7.03 83.51 6.91 82.29 6.87C82.23 6.87 82.17 6.86 82.12 6.82C82.08 6.79 82.04 6.74 82.01 6.69C81.56 5.28 80.97 3.91 80.25 2.61Z" fill="#FFA837" fill-opacity="1.000000" fill-rule="nonzero"/>
	</g>
	<rect id="mynaui:star-solid" rx="0.000000" width="19.000000" height="19.000000" transform="translate(92.500000 0.500000)" fill="#FFFFFF" fill-opacity="0"/>
	<g clip-path="url(#clip554_16132)">
		<path id="Vector" d="M103.25 2.61C102.71 1.62 101.28 1.62 100.74 2.61C100.02 3.91 99.43 5.28 98.97 6.69C98.95 6.74 98.91 6.79 98.86 6.83C98.82 6.86 98.76 6.88 98.7 6.87C97.48 6.91 96.26 7.03 95.05 7.24C93.94 7.43 93.45 8.77 94.29 9.6C94.4 9.7 94.51 9.8 94.62 9.91C95.43 10.68 96.3 11.4 97.2 12.06C97.25 12.09 97.28 12.13 97.29 12.18C97.31 12.22 97.31 12.28 97.3 12.32C96.84 13.7 96.51 15.11 96.32 16.54C96.16 17.73 97.42 18.46 98.4 17.95C99.59 17.34 100.73 16.64 101.8 15.84C101.86 15.8 101.93 15.78 102 15.78C102.06 15.78 102.13 15.8 102.19 15.84C103.26 16.64 104.4 17.35 105.59 17.95C106.57 18.46 107.83 17.73 107.67 16.54C107.48 15.11 107.15 13.7 106.69 12.32C106.68 12.28 106.68 12.22 106.7 12.18C106.71 12.13 106.75 12.09 106.79 12.06C107.81 11.31 108.78 10.49 109.69 9.6C110.54 8.77 110.05 7.43 108.94 7.24C107.73 7.03 106.51 6.91 105.29 6.87C105.23 6.87 105.17 6.86 105.12 6.82C105.08 6.79 105.04 6.74 105.02 6.69C104.56 5.28 103.97 3.91 103.25 2.61Z" fill="#FFA837" fill-opacity="1.000000" fill-rule="nonzero"/>
	</g>
	<rect id="mynaui:star-solid" rx="0.000000" width="19.000000" height="19.000000" transform="translate(46.500000 0.500000)" fill="#FFFFFF" fill-opacity="0"/>
	<g clip-path="url(#clip554_16134)">
		<path id="Vector" d="M57.25 2.61C56.71 1.62 55.28 1.62 54.74 2.61C54.02 3.91 53.43 5.28 52.97 6.69C52.95 6.74 52.91 6.79 52.86 6.83C52.82 6.86 52.76 6.88 52.7 6.87C51.48 6.91 50.26 7.03 49.05 7.24C47.94 7.43 47.45 8.77 48.29 9.6C48.4 9.7 48.51 9.8 48.62 9.91C49.43 10.68 50.3 11.4 51.2 12.06C51.25 12.09 51.28 12.13 51.29 12.18C51.31 12.22 51.31 12.28 51.3 12.32C50.84 13.7 50.51 15.11 50.32 16.54C50.16 17.73 51.42 18.46 52.4 17.95C53.59 17.34 54.73 16.64 55.8 15.84C55.86 15.8 55.92 15.78 56 15.78C56.06 15.78 56.13 15.8 56.19 15.84C57.26 16.64 58.4 17.35 59.59 17.95C60.57 18.46 61.83 17.73 61.67 16.54C61.48 15.11 61.15 13.7 60.69 12.32C60.68 12.28 60.68 12.22 60.7 12.18C60.71 12.13 60.75 12.09 60.79 12.06C61.81 11.31 62.78 10.49 63.69 9.6C64.54 8.77 64.05 7.43 62.94 7.24C61.73 7.03 60.51 6.91 59.29 6.87C59.23 6.87 59.17 6.86 59.12 6.82C59.08 6.79 59.04 6.74 59.01 6.69C58.56 5.28 57.97 3.91 57.25 2.61Z" fill="#FFA837" fill-opacity="1.000000" fill-rule="nonzero"/>
	</g>
	<rect id="mynaui:star-solid" rx="0.000000" width="19.000000" height="19.000000" transform="translate(23.500000 0.500000)" fill="#FFFFFF" fill-opacity="0"/>
	<g clip-path="url(#clip554_16136)">
		<path id="Vector" d="M34.25 2.61C33.71 1.62 32.28 1.62 31.74 2.61C31.02 3.91 30.43 5.28 29.97 6.69C29.95 6.74 29.91 6.79 29.86 6.83C29.82 6.86 29.76 6.88 29.7 6.87C28.48 6.91 27.26 7.03 26.05 7.24C24.94 7.43 24.45 8.77 25.29 9.6C25.4 9.7 25.51 9.8 25.62 9.91C26.43 10.68 27.3 11.4 28.2 12.06C28.25 12.09 28.28 12.13 28.29 12.18C28.31 12.22 28.31 12.28 28.3 12.32C27.84 13.7 27.51 15.11 27.32 16.54C27.16 17.73 28.42 18.46 29.4 17.95C30.59 17.34 31.73 16.64 32.8 15.84C32.86 15.8 32.92 15.78 33 15.78C33.06 15.78 33.13 15.8 33.19 15.84C34.26 16.64 35.4 17.35 36.59 17.95C37.57 18.46 38.83 17.73 38.67 16.54C38.48 15.11 38.15 13.7 37.69 12.32C37.68 12.28 37.68 12.22 37.7 12.18C37.71 12.13 37.75 12.09 37.79 12.06C38.81 11.31 39.78 10.49 40.69 9.6C41.54 8.77 41.05 7.43 39.94 7.24C38.73 7.03 37.51 6.91 36.29 6.87C36.23 6.87 36.17 6.86 36.12 6.82C36.08 6.79 36.04 6.74 36.01 6.69C35.56 5.28 34.97 3.91 34.25 2.61Z" fill="#FFA837" fill-opacity="1.000000" fill-rule="nonzero"/>
	</g>
	<rect id="mynaui:star-solid" rx="0.000000" width="19.000000" height="19.000000" transform="translate(0.500000 0.500000)" fill="#FFFFFF" fill-opacity="0"/>
	<g clip-path="url(#clip554_16138)">
		<path id="Vector" d="M11.25 2.61C10.71 1.62 9.28 1.62 8.74 2.61C8.02 3.91 7.43 5.28 6.97 6.69C6.95 6.74 6.91 6.79 6.86 6.83C6.82 6.86 6.76 6.88 6.7 6.87C5.48 6.91 4.26 7.03 3.05 7.24C1.94 7.43 1.45 8.77 2.29 9.6C2.4 9.7 2.51 9.8 2.62 9.91C3.43 10.68 4.3 11.4 5.2 12.06C5.25 12.09 5.28 12.13 5.29 12.18C5.31 12.22 5.31 12.28 5.3 12.32C4.84 13.7 4.51 15.11 4.32 16.54C4.16 17.73 5.42 18.46 6.4 17.95C7.59 17.34 8.73 16.64 9.8 15.84C9.86 15.8 9.92 15.78 10 15.78C10.06 15.78 10.13 15.8 10.19 15.84C11.26 16.64 12.4 17.35 13.59 17.95C14.57 18.46 15.83 17.73 15.67 16.54C15.48 15.11 15.15 13.7 14.69 12.32C14.68 12.28 14.68 12.22 14.7 12.18C14.71 12.13 14.75 12.09 14.79 12.06C15.81 11.31 16.78 10.49 17.69 9.6C18.54 8.77 18.05 7.43 16.94 7.24C15.73 7.03 14.51 6.91 13.29 6.87C13.23 6.87 13.17 6.86 13.12 6.82C13.08 6.79 13.04 6.74 13.01 6.69C12.56 5.28 11.97 3.91 11.25 2.61Z" fill="#FFA837" fill-opacity="1.000000" fill-rule="nonzero"/>
	</g>
</svg>
