<svg width="20.312500" height="22.395508" viewBox="0 0 20.3125 22.3955" fill="none" xmlns="http://www.w3.org/2000/svg" xmlns:xlink="http://www.w3.org/1999/xlink">
	<path id="Vector" d="M0.78 9.35L1.55 9.29C1.54 9.09 1.44 8.9 1.29 8.77C1.14 8.64 0.94 8.57 0.74 8.58C0.54 8.58 0.35 8.67 0.21 8.81C0.07 8.96 0 9.15 0 9.35L0.78 9.35ZM18.73 11.25L18 15.5L19.53 15.77L20.27 11.52L18.73 11.25ZM11.45 20.83L6.6 20.83L6.6 22.39L11.45 22.39L11.45 20.83ZM5.66 19.96L4.81 10.17L3.25 10.31L4.1 20.09L5.66 19.96ZM18 15.5C17.47 18.55 14.71 20.83 11.45 20.83L11.45 22.39C15.43 22.39 18.87 19.61 19.53 15.77L18 15.5ZM11.46 4L10.77 8.22L12.31 8.47L13 4.26L11.46 4ZM5.14 9.37L6.64 8.07L5.62 6.89L4.12 8.18L5.14 9.37ZM9.36 3.87L9.86 1.96L8.35 1.57L7.85 3.48L9.36 3.87ZM10.61 1.59L10.76 1.64L11.24 0.15L11.08 0.1L10.61 1.59ZM8.61 5.79C8.94 5.18 9.19 4.54 9.36 3.87L7.85 3.48C7.71 4.03 7.5 4.56 7.23 5.06L8.61 5.79ZM10.76 1.64C10.91 1.68 11.04 1.76 11.15 1.87C11.26 1.99 11.34 2.12 11.38 2.27L12.89 1.88C12.78 1.47 12.58 1.1 12.29 0.8C12 0.5 11.64 0.27 11.24 0.15L10.76 1.64ZM9.86 1.96C9.88 1.89 9.92 1.82 9.97 1.76C10.02 1.7 10.08 1.65 10.15 1.62L9.47 0.21C8.92 0.48 8.5 0.97 8.35 1.57L9.86 1.96ZM10.15 1.62C10.3 1.55 10.46 1.54 10.61 1.59L11.08 0.1C10.55 -0.07 9.98 -0.03 9.47 0.21L10.15 1.62ZM12.39 10.13L17.79 10.13L17.79 8.57L12.39 8.57L12.39 10.13ZM2.57 20.99L1.55 9.29L0 9.42L1.01 21.12L2.57 20.99ZM1.56 21.1L1.56 9.35L0 9.35L0 21.1L1.56 21.1ZM1.01 21.12C1.01 21.09 1.01 21.05 1.02 21.01C1.03 20.98 1.05 20.94 1.08 20.92C1.11 20.89 1.14 20.87 1.17 20.85C1.21 20.84 1.25 20.83 1.28 20.83L1.28 22.39C2.04 22.39 2.63 21.74 2.57 20.99L1.01 21.12ZM13 4.26C13.13 3.47 13.09 2.66 12.89 1.88L11.38 2.27C11.53 2.84 11.55 3.43 11.46 4L13 4.26ZM6.6 20.83C6.37 20.83 6.14 20.74 5.96 20.58C5.78 20.41 5.68 20.19 5.66 19.96L4.1 20.09C4.16 20.72 4.44 21.3 4.91 21.73C5.37 22.15 5.98 22.39 6.6 22.39L6.6 20.83ZM6.64 8.07C7.35 7.46 8.11 6.74 8.61 5.79L7.23 5.06C6.87 5.73 6.3 6.3 5.62 6.89L6.64 8.07ZM20.27 11.52C20.33 11.16 20.32 10.79 20.22 10.43C20.12 10.08 19.95 9.75 19.72 9.47C19.48 9.19 19.19 8.96 18.85 8.81C18.52 8.65 18.16 8.57 17.79 8.57L17.79 10.13C18.38 10.13 18.83 10.67 18.73 11.25L20.27 11.52ZM1.28 20.83C1.44 20.83 1.56 20.95 1.56 21.1L0 21.1C0 21.81 0.57 22.39 1.28 22.39L1.28 20.83ZM10.77 8.22C10.73 8.45 10.74 8.7 10.81 8.93C10.87 9.16 10.98 9.37 11.14 9.55C11.29 9.74 11.49 9.88 11.7 9.98C11.92 10.08 12.16 10.13 12.39 10.13L12.39 8.57C12.38 8.57 12.37 8.57 12.36 8.56C12.35 8.56 12.33 8.55 12.33 8.54C12.32 8.53 12.32 8.52 12.31 8.51C12.31 8.5 12.31 8.48 12.31 8.47L10.77 8.22ZM4.81 10.17C4.8 10.02 4.82 9.87 4.88 9.73C4.94 9.59 5.02 9.46 5.14 9.37L4.12 8.18C3.82 8.44 3.58 8.77 3.43 9.14C3.28 9.51 3.22 9.91 3.25 10.31L4.81 10.17Z" fill="#1C9466" fill-opacity="1.000000" fill-rule="nonzero"/>
</svg>
