<?xml version="1.0" encoding="utf-8"?>
<svg version="1.1" id="Layer_1" xmlns="http://www.w3.org/2000/svg" xmlns:xlink="http://www.w3.org/1999/xlink" x="0px" y="0px"
	 viewBox="0 0 1800 851.9" style="enable-background:new 0 0 1800 851.9;" xml:space="preserve">
<style type="text/css">
	.st0{fill:#0E5829;}
	.st1{fill:#FFFFFF;}
</style>
<g>
	<path class="st0" d="M1573.8,652.5c-186.9-103.1-221.7-318.1-368.5-455c-239-222.8-626.6-99.1-899.1-59.7
		c-97.9,14.2-200.1,25.8-300-3.2C55,327.5,203.2,551.8,384.9,646.3c226.8,118.1,496,96.7,737.2,36.9
		c132.6-32.9,231.2-92.7,375.2-22.4c65.1,31.7,167.5,110.6,235.7,120.9c30.2,4.6,60.6-15.5,66.9-42.2
		C1722.7,722.4,1643.3,690.9,1573.8,652.5z"/>
	<g>
		<path class="st1" d="M235.9,273.1h70c44,0,55.9,23.6,55.9,42.5c0,24.8-12.6,37.4-30.2,44.6v1.5c26,4.5,36.8,20.3,36.8,42.2
			c0,27.8-20,52.7-55.9,52.7h-76.6V273.1z M291.6,348.2c19.1,0,27.8-4.2,27.8-21.8c0-13.2-8.7-18.5-27.8-18.5H279v40.4H291.6z
			 M297.9,421.8c14.1,0,26-2.4,26-22.1c0-12.9-5.1-21.2-26.3-21.2H279v43.4H297.9z"/>
		<path class="st1" d="M402.6,461.6h-6.3v-137H434v67.3l76.3-70.3h4.5v134.9h-37.7v-64.3L402.6,461.6z"/>
		<path class="st1" d="M564.8,353.9h-30.5v-29.3H633v29.3h-30.5v102.6h-37.7V353.9z"/>
		<path class="st1" d="M656,328.7c12.3-5.7,25.7-7.2,39.8-7.2c37.1,0,64,12.6,64,58.9v76h-37.7v-11.7c-6.3,10.5-22.7,15-33.5,15
			c-28.7,0-45.2-16.8-45.2-46.4c0-24.2,18.2-41.9,45.8-41.9c11.7,0,24.5,3.6,32.9,11.7c0-27.2-9.3-33.8-29.6-33.8
			c-10.8,0-22.1,2.1-31.4,5.4L656,328.7z M722.5,415.5c0-11.7-9.3-18.2-19.7-18.2c-14.7,0-20,9.9-20,17.9c0,9.3,5.7,18.8,18.5,18.8
			C713.2,434,722.5,428.3,722.5,415.5z"/>
		<path class="st1" d="M832.1,398.1l-13.2,58.3h-40.7L821,321.5h7.8l40.7,81.7l41-81.7h8.1l41.6,134.9h-40.4l-15.9-58.3l-32,61.3
			h-5.7L832.1,398.1z"/>
		<path class="st1" d="M986.4,461.6h-6.3v-137h37.7v67.3l76.3-70.3h4.5v134.9h-37.7v-64.3L986.4,461.6z"/>
		<path class="st1" d="M1169.1,456.5h-37.7V324.5h37.7v52.1h42.2v-52.1h37.7v131.9h-37.7v-54.2h-42.2V456.5z"/>
	</g>
	<g>
		<path class="st0" d="M1416.7,461.6h-6.3v-137h37.7v67.3l76.3-70.3h4.5v134.9h-37.7v-64.3L1416.7,461.6z"/>
	</g>
	<g>
		<path class="st0" d="M1621.1,456.5h-50l48.8-73.6c-15.6-4.8-38.9-14.1-38.9-51.2c0-37.4,25.7-58.6,62.5-58.6h68.8v183.4h-43.1
			v-65.2h-10.8L1621.1,456.5z M1650.2,307.8c-19.4,0-25.4,12.9-25.4,25.4c0,16.8,8.4,26.9,25.1,26.9h19.4v-52.4H1650.2z"/>
	</g>
</g>
</svg>
