<svg width="40.000000" height="40.000000" viewBox="0 0 40 40" fill="none" xmlns="http://www.w3.org/2000/svg" xmlns:xlink="http://www.w3.org/1999/xlink">
	<path id="Vector" d="M39.27 9.62C39.55 8.68 39.27 8 37.94 8L33.52 8C32.39 8 31.88 8.59 31.59 9.24C31.59 9.24 29.35 14.73 26.16 18.28C25.13 19.32 24.66 19.64 24.1 19.64C23.82 19.64 23.41 19.32 23.41 18.38L23.41 9.62C23.41 8.5 23.09 8 22.15 8L15.2 8C14.5 8 14.08 8.52 14.08 9.01C14.08 10.08 15.67 10.32 15.83 13.32L15.83 19.83C15.83 21.26 15.58 21.52 15.01 21.52C13.51 21.52 9.87 16.01 7.7 9.71C7.28 8.49 6.86 8 5.73 8L1.31 8C0.04 8 -0.21 8.59 -0.21 9.25C-0.21 10.42 1.29 16.23 6.77 23.91C10.42 29.15 15.57 32 20.25 32C23.06 32 23.41 31.36 23.41 30.28L23.41 26.31C23.41 25.05 23.68 24.79 24.57 24.79C25.22 24.79 26.35 25.12 28.97 27.65C31.97 30.65 32.46 31.99 34.15 31.99L38.57 31.99C39.83 31.99 40.46 31.36 40.1 30.12C39.7 28.88 38.27 27.07 36.37 24.94C35.34 23.72 33.79 22.41 33.32 21.75C32.67 20.91 32.86 20.53 33.32 19.78C33.33 19.79 38.71 12.2 39.27 9.62Z" fill="#00582A" fill-opacity="1.000000" fill-rule="nonzero"/>
</svg>
