<svg width="40.000000" height="40.000000" viewBox="0 0 40 40" fill="none" xmlns="http://www.w3.org/2000/svg" xmlns:xlink="http://www.w3.org/1999/xlink">
	<path id="Vector" d="M20 5C28.28 5 35 11.71 35 20C35 28.28 28.28 35 20 35C17.34 35 14.74 34.3 12.45 32.96L5 35L7.03 27.54C5.69 25.25 4.99 22.65 5 20C5 11.71 11.71 5 20 5ZM14.88 12.95L14.58 12.96C14.39 12.97 14.2 13.02 14.03 13.11C13.86 13.2 13.71 13.31 13.58 13.45C13.4 13.62 13.3 13.77 13.19 13.91C12.64 14.63 12.34 15.51 12.34 16.42C12.35 17.16 12.54 17.88 12.84 18.54C13.45 19.9 14.46 21.33 15.79 22.66C16.11 22.98 16.43 23.3 16.77 23.6C18.42 25.05 20.4 26.1 22.53 26.67L23.38 26.8C23.66 26.81 23.94 26.79 24.21 26.78C24.65 26.75 25.08 26.64 25.46 26.43C25.66 26.33 25.85 26.22 26.04 26.1C26.04 26.1 26.1 26.06 26.23 25.96C26.43 25.82 26.55 25.71 26.72 25.53C26.85 25.4 26.95 25.25 27.04 25.08C27.15 24.84 27.27 24.37 27.32 23.98C27.35 23.68 27.34 23.52 27.34 23.42C27.33 23.26 27.2 23.09 27.05 23.02L26.18 22.63C26.18 22.63 24.88 22.06 24.08 21.7C23.99 21.66 23.9 21.64 23.81 21.64C23.71 21.63 23.61 21.64 23.51 21.67C23.41 21.71 23.32 21.76 23.25 21.83C23.24 21.83 23.14 21.91 22.05 23.23C21.99 23.31 21.91 23.37 21.81 23.41C21.71 23.44 21.6 23.45 21.5 23.42C21.4 23.4 21.31 23.36 21.22 23.32C21.03 23.24 20.97 23.21 20.84 23.16C19.98 22.79 19.18 22.28 18.48 21.66C18.29 21.49 18.11 21.31 17.93 21.14C17.34 20.57 16.83 19.93 16.4 19.23L16.31 19.09C16.25 19 16.2 18.89 16.16 18.78C16.1 18.56 16.25 18.39 16.25 18.39C16.25 18.39 16.62 17.99 16.79 17.77C16.95 17.56 17.09 17.36 17.18 17.21C17.36 16.93 17.41 16.63 17.32 16.41C16.9 15.38 16.46 14.36 16.02 13.35C15.93 13.15 15.67 13 15.43 12.97C15.35 12.96 15.27 12.96 15.18 12.95C14.98 12.94 14.78 12.94 14.58 12.96L14.88 12.95Z" fill="#00582A" fill-opacity="1.000000" fill-rule="nonzero"/>
</svg>
