<svg width="40.000000" height="40.000000" viewBox="0 0 40 40" fill="none" xmlns="http://www.w3.org/2000/svg" xmlns:xlink="http://www.w3.org/1999/xlink">
	<path id="Vector" d="M20.4 6.66C21.29 6.67 23.52 6.69 25.88 6.78L26.73 6.82C29.11 6.93 31.49 7.12 32.67 7.45C34.24 7.9 35.48 9.19 35.9 10.82C36.56 13.42 36.65 18.49 36.66 19.72L36.66 19.98L36.66 20.27C36.65 21.49 36.56 26.57 35.9 29.16C35.48 30.81 34.24 32.1 32.67 32.53C31.49 32.86 29.11 33.06 26.73 33.17L25.88 33.21C23.52 33.3 21.29 33.32 20.4 33.33L20.01 33.33L19.58 33.33C17.7 33.32 9.82 33.23 7.32 32.53C5.75 32.09 4.51 30.8 4.09 29.16C3.42 26.56 3.34 21.49 3.33 20.27L3.33 19.72C3.34 18.49 3.42 13.42 4.09 10.82C4.51 9.18 5.75 7.89 7.32 7.45C9.82 6.76 17.7 6.67 19.59 6.66L20.4 6.66ZM16.66 14.16L16.66 25.83L26.66 20L16.66 14.16Z" fill="#00582A" fill-opacity="1.000000" fill-rule="nonzero"/>
</svg>
